<svg width="216" height="210" viewBox="0 0 216 210" fill="none" xmlns="http://www.w3.org/2000/svg">
<circle opacity="0.18586" cx="127.77" cy="121.512" r="62.256" transform="rotate(-45 127.77 121.512)" fill="#505DD2"/>
<path opacity="0.73" d="M142.148 100.008V120.939C139.854 124.184 137.275 127.179 134.422 129.925V100.008H134.41V99.9367C134.375 99.7817 130.619 96.6677 127.73 94.3027V92.9957L131.225 92.0917C132.663 91.7237 134.173 91.8427 135.516 92.4247C136.122 92.6867 136.752 92.9357 137.382 93.1377V95.8717C140.27 98.2367 142.101 99.7817 142.136 99.9367V100.008H142.148Z" fill="#B2B5D3"/>
<path d="M2.69592 5.16797L20.965 48.0334L34.3177 38.8988L42.0558 50.1425L43.4522 31.1752L59.6122 21.328L2.69592 5.16797Z" fill="#4C59CE"/>
<path d="M37.2777 36.8698L20.965 48.0334L34.3177 38.8988L42.0558 50.1425L43.4522 31.1752L17.702 15.8395L37.2777 36.8698Z" fill="#6673ED"/>
<path d="M43.11 35.8244L17.702 15.8395L43.4522 31.1752L43.11 35.8244Z" fill="#384196"/>
<path d="M42.3833 55.4888C42.2393 54.6538 42.0563 53.8208 41.8403 53.0118L43.0933 52.6768C43.3193 53.5228 43.5103 54.3948 43.6613 55.2678L42.3833 55.4888Z" fill="#4C59CE"/>
<path d="M27.2553 84.6048C25.3733 84.4788 23.5723 83.8788 22.0473 82.8668L22.7643 81.7868C24.1003 82.6728 25.6843 83.1998 27.3413 83.3108L27.2553 84.6048ZM32.6423 83.5468L32.0703 82.3838C33.4193 81.7198 34.7243 80.6928 35.9493 79.3288L36.9143 80.1948C35.5783 81.6828 34.1403 82.8118 32.6423 83.5468ZM18.4383 78.7258C17.7063 77.2438 17.3193 75.6148 17.3203 74.0138C17.3203 73.8828 17.3233 73.7508 17.3283 73.6198L17.3443 73.3388L18.6373 73.4338L18.6243 73.6698C18.6203 73.7868 18.6173 73.9008 18.6173 74.0138C18.6163 75.4168 18.9563 76.8478 19.6013 78.1518L18.4383 78.7258ZM68.6133 78.4298L68.6073 77.1328C70.2963 77.1248 72.0343 77.0558 73.7733 76.9278L73.8683 78.2208C72.1003 78.3518 70.3323 78.4218 68.6133 78.4298ZM63.3533 78.2598L62.5253 78.1958C60.9313 78.0628 59.4863 77.8838 58.1093 77.6448L58.3293 76.3668C59.6693 76.5988 61.0773 76.7738 62.6323 76.9038L63.4433 76.9648L63.3533 78.2598ZM79.0933 77.6698L78.9183 76.3848C80.5863 76.1578 82.3053 75.8738 84.0283 75.5418L84.2733 76.8148C82.5283 77.1518 80.7853 77.4398 79.0933 77.6698ZM52.9563 76.3588C51.4313 75.8408 50.0033 75.2068 48.7083 74.4768C48.5053 74.3628 48.3023 74.2438 48.1023 74.1228L48.7723 73.0118C48.9613 73.1258 49.1513 73.2378 49.3443 73.3458C50.5703 74.0378 51.9253 74.6388 53.3743 75.1318L52.9563 76.3588ZM40.0143 75.8428L38.8893 75.1968C39.7293 73.7348 40.4493 72.1788 41.0283 70.5718L42.2483 71.0118C41.6433 72.6898 40.8913 74.3148 40.0143 75.8428ZM89.3993 75.6988L89.0943 74.4388C90.7163 74.0448 92.4043 73.5978 94.1103 73.1098L94.4673 74.3568C92.7433 74.8498 91.0393 75.3008 89.3993 75.6988ZM99.4763 72.8268L99.0763 71.5928C100.724 71.0588 102.365 70.4998 103.996 69.9198L104.43 71.1428C102.788 71.7258 101.136 72.2888 99.4763 72.8268ZM43.7723 71.1178C42.5793 70.2488 41.2983 69.3368 39.9113 68.5778L39.4773 68.3478L40.0713 67.1948C40.2263 67.2738 40.3803 67.3568 40.5333 67.4398C41.9883 68.2358 43.3623 69.2148 44.5363 70.0698L43.7723 71.1178ZM20.4543 69.1678L19.5473 68.2408C20.6893 67.1228 22.2503 66.2848 24.3203 65.6798L24.7563 66.9028C22.8503 67.4608 21.4273 68.2148 20.4543 69.1678ZM34.7403 66.6358C33.2663 66.3058 31.7543 66.1388 30.2463 66.1388L29.7203 66.1448L29.6883 64.8488C31.4733 64.8048 33.2753 64.9778 35.0243 65.3708L34.7403 66.6358ZM43.6183 65.8718L42.3413 65.6448C42.6383 63.9688 42.7923 62.2598 42.8013 60.5668L44.0983 60.5728C44.0893 62.3398 43.9283 64.1228 43.6183 65.8718Z" fill="#4C59CE"/>
<path d="M109.394 69.3138L108.933 68.1017C109.74 67.7937 110.547 67.4818 111.351 67.1667L111.822 68.3757C111.015 68.6908 110.206 69.0047 109.394 69.3138Z" fill="#4C59CE"/>
<path d="M150.221 100.92C149.561 100.92 148.996 100.419 148.931 99.7479C148.862 99.0359 149.383 98.4019 150.096 98.3329C157.934 97.5729 165.144 93.8319 170.399 87.7979C170.87 87.2559 171.689 87.2029 172.228 87.6719C172.768 88.1419 172.825 88.9609 172.354 89.5009C166.663 96.0379 158.847 100.091 150.347 100.914C150.304 100.918 150.262 100.92 150.221 100.92Z" fill="#00C8B7"/>
<path d="M134.415 100.009L89.2353 126.652L44.0563 100.009C44.0563 99.9869 44.0563 99.9579 44.0633 99.9359C44.1003 99.7669 46.5943 97.6849 50.3973 94.5949C50.4333 94.5659 50.4633 94.5369 50.5003 94.5069C62.9753 84.3779 89.2353 63.6349 89.2353 63.6349C89.2353 63.6349 115.496 84.3779 127.971 94.5069C131.833 97.6409 134.371 99.7589 134.408 99.9359C134.415 99.9579 134.415 99.9869 134.415 100.009Z" fill="#4F5481"/>
<path d="M107.816 41.5698H59.0703C54.8893 41.5698 51.4993 44.9598 51.4993 49.1408V122.844C51.4993 127.025 54.8893 130.414 59.0703 130.414H120.15C124.331 130.414 127.721 127.025 127.721 122.844V61.4748L107.816 41.5698Z" fill="white"/>
<path d="M107.816 53.9048C107.816 58.0858 111.205 61.4748 115.387 61.4748H127.721L107.816 41.5698V53.9048Z" fill="#E6E8E8"/>
<path opacity="0.287094" d="M63.0299 56.725C63.0299 55.2356 64.2373 54.0282 65.7267 54.0282H82.5442C84.0336 54.0282 85.241 55.2356 85.241 56.725V73.5425C85.241 75.0319 84.0336 76.2393 82.5442 76.2393H65.7267C64.2373 76.2393 63.0299 75.0319 63.0299 73.5425V56.725Z" fill="#5976ED"/>
<path d="M105.582 82.4119H65.2293C64.0293 82.4119 63.0563 83.3849 63.0563 84.5849C63.0563 85.7849 64.0293 86.7579 65.2293 86.7579H105.582C106.782 86.7579 107.755 85.7849 107.755 84.5849C107.755 83.3849 106.782 82.4119 105.582 82.4119Z" fill="#D9DBDB"/>
<path d="M105.582 93.2358H65.2293C64.0293 93.2358 63.0563 94.2088 63.0563 95.4088C63.0563 96.6088 64.0293 97.5818 65.2293 97.5818H105.582C106.782 97.5818 107.755 96.6088 107.755 95.4088C107.755 94.2088 106.782 93.2358 105.582 93.2358Z" fill="#D9DBDB"/>
<path d="M87.2563 103.736H65.2293C64.0293 103.736 63.0563 104.709 63.0563 105.909C63.0563 107.109 64.0293 108.082 65.2293 108.082H87.2563C88.4563 108.082 89.4293 107.109 89.4293 105.909C89.4293 104.709 88.4563 103.736 87.2563 103.736Z" fill="#D9DBDB"/>
<path d="M134.42 100.008V143.352C134.42 146.381 131.944 148.857 128.914 148.857H49.5523C46.5223 148.857 44.0613 146.381 44.0613 143.352V100.008L89.2403 126.646L134.42 100.008Z" fill="#4C59CE"/>
<path d="M132.893 147.132L103.814 118.053L89.2403 126.646L74.6613 118.05L45.5803 147.131C46.5813 148.188 47.9863 148.857 49.5523 148.857H128.914C130.48 148.857 131.888 148.189 132.893 147.132Z" fill="#6673ED"/>
<path d="M143.545 40.5067C130.539 41.7837 120.148 52.5037 119.219 65.5387C118.756 72.0257 120.595 78.0517 123.98 82.9267C125.255 84.7627 125.464 87.1357 124.607 89.2007L122.462 94.3647L131.229 92.0917C132.658 91.7207 134.167 91.8367 135.521 92.4237C139.586 94.1867 144.162 94.9907 148.972 94.5247C161.738 93.2887 172.067 82.9797 173.3 70.2137C174.954 53.0877 160.677 38.8257 143.545 40.5067Z" fill="#00C8B7"/>
<path d="M145.559 40.3907C155.226 43.2847 162.277 52.2387 162.277 62.8487C162.277 75.7997 151.777 86.2997 138.826 86.2997C132.003 86.2997 125.88 83.3677 121.595 78.7167C122.27 80.1937 123.062 81.6057 123.98 82.9267C125.255 84.7627 125.464 87.1357 124.607 89.2007L122.462 94.3647L131.229 92.0917C132.658 91.7207 134.167 91.8367 135.521 92.4237C139.586 94.1867 144.162 94.9897 148.972 94.5247C161.738 93.2887 172.067 82.9797 173.3 70.2137C174.889 53.7637 161.777 39.9657 145.559 40.3907Z" fill="#08B29D"/>
<path d="M4.24427 17.8788L10.1703 31.4768C10.4713 32.1698 10.1523 32.9768 9.45826 33.2758L9.24727 33.3668C8.55027 33.6678 7.74127 33.3428 7.44627 32.6438L1.73227 18.9538C1.43026 18.2368 1.78727 17.4118 2.51826 17.1418C3.19827 16.8908 3.95527 17.2138 4.24427 17.8788Z" fill="#6673ED"/>
<g opacity="0.104037">
<path d="M27.4593 113.576C25.0523 113.576 23.1023 115.526 23.1023 117.933C23.1023 120.339 25.0523 122.289 27.4593 122.289C29.8653 122.289 31.8153 120.339 31.8153 117.933C31.8153 115.526 29.8653 113.576 27.4593 113.576ZM27.4593 119.696C26.4853 119.696 25.6953 118.907 25.6953 117.933C25.6953 116.959 26.4853 116.169 27.4593 116.169C28.4333 116.169 29.2223 116.959 29.2223 117.933C29.2223 118.907 28.4333 119.696 27.4593 119.696Z" fill="#6673ED"/>
<path d="M179.849 63.5378C178.007 63.5378 176.514 65.0318 176.514 66.8738C176.514 68.7158 178.007 70.2098 179.849 70.2098C181.692 70.2098 183.185 68.7158 183.185 66.8738C183.185 65.0318 181.692 63.5378 179.849 63.5378ZM179.849 68.2238C179.104 68.2238 178.499 67.6198 178.499 66.8738C178.499 66.1278 179.104 65.5238 179.849 65.5238C180.595 65.5238 181.199 66.1278 181.199 66.8738C181.199 67.6198 180.595 68.2238 179.849 68.2238Z" fill="#6673ED"/>
<path d="M121.112 10.1758C119.164 10.1758 117.585 11.7548 117.585 13.7028C117.585 15.6508 119.164 17.2298 121.112 17.2298C123.059 17.2298 124.639 15.6508 124.639 13.7028C124.639 11.7548 123.059 10.1758 121.112 10.1758ZM121.112 15.1308C120.323 15.1308 119.684 14.4918 119.684 13.7028C119.684 12.9148 120.323 12.2758 121.112 12.2758C121.9 12.2758 122.539 12.9148 122.539 13.7028C122.539 14.4918 121.9 15.1308 121.112 15.1308Z" fill="#6673ED"/>
<path d="M8.29333 92.3549C6.24533 92.3549 4.58533 94.0148 4.58533 96.0629C4.58533 98.1109 6.24533 99.7709 8.29333 99.7709C10.3423 99.7709 12.0023 98.1109 12.0023 96.0629C12.0023 94.0148 10.3423 92.3549 8.29333 92.3549Z" fill="#6673ED"/>
<path d="M67.7533 11.2849C65.5763 11.2849 63.8113 13.0499 63.8113 15.2269C63.8113 17.4039 65.5763 19.1689 67.7533 19.1689C69.9303 19.1689 71.6953 17.4039 71.6953 15.2269C71.6953 13.0499 69.9303 11.2849 67.7533 11.2849Z" fill="#6673ED"/>
<path d="M88.8563 154.073C87.2693 154.073 85.9833 155.359 85.9833 156.946C85.9833 158.532 87.2693 159.818 88.8563 159.818C90.4423 159.818 91.7283 158.532 91.7283 156.946C91.7283 155.359 90.4423 154.073 88.8563 154.073Z" fill="#6673ED"/>
<path d="M144.457 26.4888C142.595 26.4888 141.086 27.9988 141.086 29.8608C141.086 31.7228 142.595 33.2318 144.457 33.2318C146.319 33.2318 147.829 31.7228 147.829 29.8608C147.829 27.9988 146.319 26.4888 144.457 26.4888Z" fill="#6673ED"/>
<circle cx="25.0396" cy="54.6194" r="1.919" fill="#6673ED"/>
<path d="M181.014 46.7249C179.206 46.7249 177.74 48.1909 177.74 49.9998C177.74 51.8078 179.206 53.2729 181.014 53.2729C182.822 53.2729 184.288 51.8078 184.288 49.9998C184.288 48.1909 182.822 46.7249 181.014 46.7249Z" fill="#6673ED"/>
<circle cx="6.45423" cy="66.1389" r="2.089" fill="#6673ED"/>
<path d="M94.2732 4.28088L95.5852 2.96888C96.0402 2.51388 96.0402 1.76988 95.5852 1.31488C95.1312 0.859884 94.3862 0.859884 93.9322 1.31488L92.6202 2.62688L91.3082 1.31488C90.8532 0.859884 90.1082 0.859884 89.6542 1.31488C89.1992 1.76988 89.1992 2.51388 89.6542 2.96888L90.9662 4.28088L89.6542 5.59288C89.1992 6.04788 89.1992 6.79188 89.6542 7.24688C90.1082 7.70188 90.8532 7.70188 91.3082 7.24688L92.6202 5.93488L93.9322 7.24688C94.3862 7.70188 95.1312 7.70188 95.5852 7.24688C96.0402 6.79188 96.0402 6.04788 95.5852 5.59288L94.2732 4.28088Z" fill="#6673ED"/>
<path d="M4.96125 43.9308L6.27324 42.6188C6.72824 42.1638 6.72824 41.4198 6.27324 40.9648C5.81824 40.5098 5.07425 40.5098 4.61925 40.9648L3.30724 42.2768L1.99524 40.9648C1.54024 40.5098 0.796238 40.5098 0.341251 40.9648C-0.11375 41.4198 -0.11375 42.1638 0.341251 42.6188L1.65325 43.9308L0.341251 45.2428C-0.11375 45.6968 -0.11375 46.4418 0.341251 46.8968C0.796238 47.3508 1.54024 47.3508 1.99524 46.8968L3.30724 45.5848L4.61925 46.8968C5.07425 47.3508 5.81824 47.3508 6.27324 46.8968C6.72824 46.4418 6.72824 45.6968 6.27324 45.2428L4.96125 43.9308Z" fill="#6673ED"/>
</g>
<path d="M132.097 69.3519C132.288 69.1297 132.459 68.8866 132.673 68.6891C133.391 68.0251 134.124 67.3774 134.852 66.7235C135.402 66.2293 135.827 66.2454 136.351 66.779C138.205 68.6669 140.059 70.5545 141.913 72.4424C142.46 72.9996 142.91 73.0016 143.465 72.4489C147.816 68.1177 152.168 63.7866 156.52 59.4554C157.079 58.8984 157.519 58.8991 158.076 59.4588C158.799 60.1854 159.526 60.9071 160.239 61.6438C160.428 61.8399 160.569 62.0834 160.732 62.3051V62.6966C160.57 62.919 160.435 63.168 160.243 63.3601C154.677 68.9246 149.107 74.4848 143.529 80.0375C143.32 80.2455 143.031 80.3726 142.779 80.5374H142.612C142.359 80.3736 142.065 80.2503 141.861 80.0401C138.755 76.8498 135.659 73.6496 132.567 70.4457C132.384 70.2559 132.253 70.016 132.097 69.7994C132.097 69.6502 132.097 69.5011 132.097 69.3519Z" fill="white"/>
</svg>
