<svg width="36" height="36" viewBox="0 0 36 36" fill="none" xmlns="http://www.w3.org/2000/svg">
<circle opacity="0.0902314" cx="18.0001" cy="18" r="18" fill="white"/>
<path d="M23.8743 20.8273C27.1603 17.5414 27.2931 12.2787 24.2738 8.83221C24.3617 8.86452 24.4561 8.883 24.5552 8.883C25.006 8.883 25.3715 8.51756 25.3715 8.06674C25.3715 7.61593 25.006 7.25049 24.5552 7.25049C24.1044 7.25049 23.739 7.61593 23.739 8.06674C23.739 8.14946 23.7515 8.2292 23.7744 8.30444L23.3957 7.92582L21.9354 9.38619C19.2855 7.21794 15.3594 7.36946 12.8878 9.84085C11.6124 11.1163 10.91 12.8121 10.91 14.6159C10.91 16.192 11.4465 17.6858 12.4329 18.8887L10.9729 20.3487L11.2146 20.5903C11.1244 20.556 11.0269 20.5364 10.9247 20.5364C10.4739 20.5364 10.1084 20.9018 10.1084 21.3526C10.1084 21.8034 10.4739 22.1689 10.9247 22.1689C11.3755 22.1689 11.741 21.8034 11.741 21.3526C11.741 21.245 11.7195 21.1425 11.6817 21.0484C13.3629 22.6131 15.5128 23.396 17.663 23.396C17.7523 23.396 17.8418 23.3941 17.9312 23.3914V25.1422H15.2239V28.6167H21.9922V25.1422H19.2849V23.2457C20.9673 22.9321 22.5753 22.1263 23.8743 20.8273ZM12.9089 20.3271L13.3904 19.8455C14.6288 20.8588 16.1458 21.3656 17.663 21.3656C19.3922 21.3656 21.1214 20.7073 22.4379 19.3908C23.7134 18.1153 24.4158 16.4196 24.4158 14.6159C24.4158 13.0397 23.8794 11.5459 22.8929 10.343L23.3741 9.8618C25.8055 12.7781 25.653 17.1342 22.9172 19.8701C20.1812 22.606 15.8251 22.7584 12.9089 20.3271Z" fill="white"/>
</svg>
