<svg width="15" height="16" viewBox="0 0 15 16" fill="none" xmlns="http://www.w3.org/2000/svg">
<path d="M10.0651 4.51282C10.6677 3.91016 11.2609 3.3172 11.8649 2.71283C11.5114 2.71283 11.1608 2.71301 10.8103 2.71277C10.5075 2.71252 10.4489 2.65631 10.4475 2.35889C10.446 2.0105 10.445 1.66211 10.448 1.31378C10.4499 1.05493 10.5192 0.992188 10.7741 0.992188C12.0002 0.991944 13.226 0.990235 14.4519 0.989502C14.7688 0.98938 14.8168 1.03735 14.8171 1.35101C14.8176 2.59454 14.8176 3.83801 14.8178 5.08154C14.8178 5.28516 14.7443 5.36475 14.5407 5.36646C14.1594 5.36969 13.7778 5.36938 13.3962 5.3667C13.1794 5.36511 13.1113 5.28986 13.1118 5.07458C13.113 4.70068 13.112 4.32672 13.112 3.95898C12.5178 4.55762 11.9255 5.15448 11.3166 5.76831C12.4748 7.38696 12.7727 9.20801 12.1818 11.1475C11.757 12.543 10.8503 13.6025 9.62959 14.379C7.37422 15.8134 4.06978 15.5779 1.97774 13.1699C0.118364 11.0296 0.104203 7.69141 1.9106 5.52563C3.93038 3.104 7.51973 2.62634 10.0651 4.51282ZM6.5251 5.06885C4.32613 4.98981 2.25606 6.91833 2.26997 9.2981C2.2834 11.6519 4.16182 13.5585 6.49776 13.5602C8.85567 13.562 10.7517 11.6566 10.7619 9.29639C10.7727 6.95117 8.76631 5.00769 6.5251 5.06885Z" fill="#6671D5"/>
</svg>
