<svg width="73" height="52" viewBox="0 0 73 52" fill="none" xmlns="http://www.w3.org/2000/svg">
<path d="M70.5581 29.501C72.755 27.5517 72.755 24.1436 70.5581 22.1943C65.3855 17.6058 54.5204 10.5 37.9357 11.9896C21.569 13.4608 10.6497 18.7615 10.6497 18.7615V32.9338C10.6497 32.9338 21.569 38.2357 37.9357 39.7057C54.5204 41.1954 65.3855 34.0895 70.5581 29.501Z" fill="#E6E6E6"/>
<path d="M12.1873 36.1646V51.2781C23.8274 51.2781 29.6579 45.9294 32.471 41.6057C22.5029 40.1222 15.2072 37.4213 12.1873 36.1646Z" fill="#E6E6E6"/>
<path d="M12.1873 15.532V0.417236C23.8274 0.417236 29.6579 5.76599 32.471 10.0909C22.5029 11.5744 15.2072 14.274 12.1873 15.532Z" fill="#E6E6E6"/>
<path d="M9.17459 25.8478V19.0032C5.5188 19.0032 3.6102 20.9906 3.6102 20.9906C3.6102 20.9906 5.5188 21.2284 6.07449 22.2622C2.65652 22.8179 0 25.8478 0 25.8478C0 25.8478 2.65652 28.8776 6.07449 29.4333C5.5188 30.4671 3.6102 30.7062 3.6102 30.7062C3.6102 30.7062 5.5188 32.6936 9.17459 32.6936V25.8478Z" fill="#E6E6E6"/>
<path d="M19.5445 47.3462C19.7724 47.5545 20.1408 47.435 20.2024 47.1331L20.4488 45.9206C20.4723 45.8085 20.5425 45.7112 20.6423 45.6545L21.7192 45.0446C21.9878 44.893 21.9878 44.5061 21.7192 44.3533L20.6423 43.7434C20.5425 43.6867 20.4723 43.5907 20.4488 43.4773L20.2024 42.2661C20.1408 41.963 19.7724 41.8434 19.5445 42.0517L18.6326 42.8871C18.5476 42.9647 18.4331 43.0017 18.3197 42.9894L17.09 42.8501C16.7832 42.8144 16.5565 43.1286 16.6834 43.4095L17.196 44.5345C17.244 44.6392 17.244 44.7587 17.196 44.8635L16.6834 45.9896C16.5565 46.2706 16.7832 46.5835 17.09 46.549L18.3197 46.4098C18.4331 46.3963 18.5476 46.4332 18.6326 46.5109L19.5445 47.3462Z" fill="#E6E6E6"/>
<path d="M19.5445 4.34905C19.7724 4.1408 20.1408 4.26032 20.2024 4.56344L20.4488 5.77465C20.4723 5.88799 20.5425 5.98411 20.6423 6.04079L21.7192 6.6507C21.9878 6.80225 21.9878 7.19039 21.7192 7.34194L20.6423 7.95185C20.5425 8.00854 20.4723 8.10587 20.4488 8.21801L20.2024 9.43043C20.1408 9.73232 19.7724 9.85184 19.5445 9.64361L18.6326 8.8082C18.5476 8.73058 18.4331 8.69361 18.3197 8.70718L17.09 8.8464C16.7832 8.8809 16.5565 8.56792 16.6834 8.28701L17.196 7.16082C17.244 7.0561 17.244 6.93658 17.196 6.83182L16.6834 5.70565C16.5565 5.42472 16.7832 5.11175 17.09 5.14625L18.3197 5.28547C18.4331 5.29903 18.5476 5.26206 18.6326 5.18444L19.5445 4.34905Z" fill="#E6E6E6"/>
<path d="M31.7759 26.2309C32.1751 26.1163 32.1751 25.5803 31.7759 25.4645C29.314 24.7523 23.619 23.2959 18.2074 23.2959C15.525 23.2959 13.6879 23.7678 12.6615 24.1387C12.0664 24.3518 11.6746 24.8866 11.6746 25.4904V25.8477V26.2062C11.6746 26.81 12.0664 27.3435 12.6615 27.5579C13.6879 27.9276 15.525 28.3995 18.2074 28.3995C23.619 28.3995 29.314 26.9443 31.7759 26.2309Z" fill="white"/>
<circle cx="48.3552" cy="25.8479" r="4.08569" fill="white"/>
<path d="M56.1283 25.8476C56.1283 21.5548 52.6487 18.0752 48.3559 18.0752C44.0618 18.0752 40.5823 21.5548 40.5823 25.8476C40.5823 30.1404 44.0618 33.6213 48.3559 33.6213C52.6487 33.6213 56.1283 30.1404 56.1283 25.8476ZM42.5673 25.8476C42.5673 22.6563 45.1634 20.0602 48.3547 20.0602C51.5472 20.0602 54.1433 22.6563 54.1433 25.8476C54.1433 29.0401 51.5472 31.6363 48.3547 31.6363C45.1634 31.6363 42.5673 29.0401 42.5673 25.8476Z" fill="white"/>
<path d="M66.4131 18.9846C65.9214 18.6531 65.4077 18.3204 64.8692 17.9902C64.4478 20.0282 64.0535 22.7537 64.0535 25.8477C64.0535 28.9305 64.4441 31.6597 64.8643 33.7088C65.4027 33.3786 65.9165 33.0459 66.4081 32.7144C66.0582 30.8367 65.7551 28.466 65.7551 25.8477C65.7551 23.2244 66.0607 20.855 66.4131 18.9846Z" fill="#E6E6E6"/>
</svg>
