<svg width="275" height="209" viewBox="0 0 275 209" fill="none" xmlns="http://www.w3.org/2000/svg">
<path opacity="0.1" d="M65.9177 173.862C63.6125 173.629 61.2042 173.379 59.0211 173.989C56.8379 174.599 55.029 176.381 55.6772 178.084C57.1254 181.881 65.6248 179.237 69.5437 181.832C70.9431 182.76 71.4882 184.219 72.5811 185.358C74.3494 187.208 77.3896 188.07 80.3239 188.545C97.952 191.395 118.048 184.059 133.498 191.124C138.502 193.413 142.448 197.055 147.934 198.582C155.203 200.605 163.162 198.443 170.683 197.058C180.062 195.344 189.622 194.842 199.129 195.566C206.161 196.108 215.515 196.29 217.766 191.183C219.214 187.899 216.15 184.243 212.082 182.689C208.014 181.135 203.251 181.184 198.709 181.333C189.941 181.648 181.17 182.283 172.402 181.973C155.447 181.371 139.429 174.651 122.919 174.429C103.691 174.195 85.2354 175.809 65.9177 173.862Z" fill="#6C63FF"/>
<path opacity="0.1" d="M48.0918 88.8538C45.3798 91.5957 45.2144 95.7993 45.2144 95.7993C45.2144 95.7993 49.4152 95.5606 52.1164 92.8161C54.8176 90.0715 54.9966 85.8706 54.9966 85.8706C54.9966 85.8706 50.7929 86.1174 48.0918 88.8538Z" fill="#6C63FF"/>
<path opacity="0.1" d="M59.0077 21.1186C59.965 24.8476 63.4771 27.1664 63.4771 27.1664C63.4771 27.1664 65.4379 23.4428 64.4805 19.7138C63.5232 15.9848 60.0111 13.6687 60.0111 13.6687C60.0111 13.6687 58.0395 17.3923 59.0077 21.1186Z" fill="#6C63FF"/>
<path opacity="0.1" d="M217.617 31.3755C214.905 34.1174 214.737 38.321 214.737 38.321C214.737 38.321 218.94 38.0824 221.642 35.3378C224.343 32.5933 224.519 28.3896 224.519 28.3896C224.519 28.3896 220.318 28.6473 217.617 31.3755Z" fill="#6C63FF"/>
<path opacity="0.1" d="M134.957 69.7993C134.643 73.6342 137.2 76.9753 137.2 76.9753C137.2 76.9753 140.273 74.0979 140.588 70.2604C140.902 66.4229 138.345 63.0898 138.345 63.0898C138.345 63.0898 135.272 65.9619 134.957 69.7993Z" fill="#6C63FF"/>
<path opacity="0.1" d="M223.928 123.581C223.613 127.416 226.171 130.757 226.171 130.757C226.171 130.757 229.243 127.88 229.558 124.045C229.872 120.21 227.315 116.869 227.315 116.869C227.315 116.869 224.242 119.746 223.928 123.581Z" fill="#6C63FF"/>
<path opacity="0.1" d="M159.951 26.4966C142.399 25.9677 125.682 21.0725 109.719 15.7028C93.7566 10.333 77.9455 4.39639 60.8137 1.5542C49.7948 -0.273695 37.1921 -0.531332 28.3157 4.58081C19.7702 9.49768 17.0094 17.989 15.5259 25.8674C14.4085 31.7931 13.7522 38.0308 16.8114 43.5795C18.9376 47.4333 22.7073 50.6714 25.3162 54.3598C34.3933 67.2011 27.9767 83.0339 18.143 95.5823C13.5326 101.465 8.17634 107.073 4.61546 113.335C1.0546 119.597 -0.591598 126.768 2.5245 133.152C5.61077 139.482 12.9685 144.236 20.9391 147.58C37.127 154.36 56.1952 156.315 74.8023 157.416C115.979 159.857 157.372 158.799 198.657 157.742C213.937 157.351 229.281 156.955 244.311 154.91C252.659 153.777 261.275 151.976 267.336 147.626C275.027 142.104 276.934 132.756 271.778 125.832C263.132 114.222 239.234 111.336 233.184 98.8747C229.859 92.016 233.273 84.3763 238.109 78.0139C248.479 64.3671 265.861 52.3936 266.775 36.7914C267.404 26.0789 259.048 15.3502 246.128 10.2815C232.587 4.96592 213.806 5.63578 203.821 14.4308C193.529 23.4754 175.45 26.9603 159.951 26.4966Z" fill="#6C63FF"/>
<path d="M218.135 77.5503C217.377 77.7441 216.758 78.2897 216.47 79.0175L216.199 78.9741L215.187 78.8114C215.187 78.8114 209.828 78.3693 208.827 78.4371C207.827 78.5049 207.2 77.5177 207.2 77.5177L203.216 74.1467L202.907 73.8755C203.338 73.7128 203.607 73.6287 203.607 73.6287C203.607 73.6287 192.916 60.3399 190.611 60.0822C188.306 59.8245 184.495 56.722 184.457 56.6922L184.417 56.4806C184.332 56.0332 184.27 55.5803 184.224 55.1246L184.791 55.4718C184.791 55.3145 184.791 55.1572 184.807 54.9999C184.892 53.3599 185.445 51.7785 186.402 50.4437C187.516 48.8979 189.165 47.6829 189.824 45.9011C190.087 45.1349 190.206 44.3266 190.174 43.5172C190.191 42.0592 189.806 40.6246 189.062 39.3706C188.295 38.1026 187.021 37.2239 185.564 36.9569C185.184 36.8972 184.796 36.8891 184.422 36.8023C182.195 36.2789 181.376 33.293 179.212 32.5607C178.203 32.219 177.081 32.4441 176.107 32.8672C175.133 33.2902 174.252 33.8977 173.3 34.3669C172.348 34.8361 171.269 35.1805 170.404 35.845C170.314 35.9128 170.219 35.9941 170.132 36.0782L169.962 36.2436C169.604 36.606 169.294 37.0114 169.037 37.4505L168.996 37.5183C168.969 37.5644 168.945 37.6132 168.92 37.662C168.896 37.7108 168.879 37.7379 168.863 37.7759C168.847 37.8139 168.82 37.8627 168.801 37.9061L168.744 38.0363L168.695 38.161C168.679 38.2071 168.66 38.2532 168.646 38.3021C168.633 38.3509 168.619 38.3807 168.608 38.4214L168.568 38.5651L168.543 38.6817C168.543 38.7305 168.524 38.7821 168.516 38.8309C168.508 38.8797 168.516 38.9041 168.516 38.9394C168.516 38.9746 168.516 39.0424 168.516 39.094C168.516 39.1455 168.516 39.1618 168.516 39.1943C168.516 39.2268 168.516 39.3028 168.516 39.3597C168.516 39.4167 168.516 39.414 168.516 39.4411C168.527 39.5208 168.543 39.5997 168.565 39.677C168.711 40.176 169.216 40.6859 169.601 41.1307C169.557 41.1714 169.514 41.2093 169.471 41.2527C167.621 43.0353 166.576 45.4937 166.577 48.0626C166.577 48.6275 166.629 49.1912 166.731 49.7467C166.239 49.3744 165.709 49.0536 165.15 48.7894C163.314 47.9088 161.305 47.4458 159.268 47.4334C155.946 47.3954 151.278 46.1479 151.278 46.1479C151.398 46.3756 151.489 46.6169 151.55 46.8666C151.346 46.75 151.127 46.6252 150.885 46.495C148.939 45.4504 146.83 44.7442 144.648 44.4068C144.648 44.4068 143.264 44.5993 143.08 41.6948C143.017 40.7872 142.853 39.8895 142.592 39.018C141.798 36.3616 141.248 33.6383 140.948 30.882L140.485 26.6187C140.485 26.6187 142.573 15.4995 141.317 10.7589C141.721 9.27269 141.494 7.91125 140.162 6.93222C134.909 3.06489 129.61 18.1166 129.61 18.1166L127.641 20.0285C127.136 19.6993 126.566 19.482 125.97 19.3912C125.97 19.3912 124.91 20.476 124.172 23.4375C123.781 25.0078 121.113 27.6303 118.699 29.7429C116.985 31.2427 115.331 32.8021 113.679 34.3669C112.459 35.5277 109.739 37.1874 103.805 38.1258C102.874 38.2722 102.028 38.4105 101.255 38.538C101.453 37.8373 101.553 37.1127 101.554 36.3847C101.535 32.6103 98.9042 29.3524 95.2185 28.5388C95.2457 28.349 95.2457 28.1564 95.2185 27.9666C95.1185 27.5582 94.9116 27.1838 94.6192 26.8818C93.3689 25.3359 92.0129 23.7467 90.1525 23.0144C89.3853 22.7161 88.5635 22.5839 87.7415 22.6266H87.3293C87.2452 22.6266 87.1639 22.6266 87.0798 22.6266C85.3052 22.7249 83.6589 23.5826 82.5615 24.9806C81.8944 25.8729 81.493 26.9306 80.918 27.8825C79.8495 29.6453 78.2061 31.004 76.4243 32.078C75.353 32.7262 74.2276 33.2848 73.216 34.0198C69.5466 36.6857 67.8543 41.6134 68.7764 46.0177C69.1832 47.9514 70.0429 49.8552 69.8124 51.816C69.6307 53.3374 68.8117 54.7043 67.9764 55.9952C67.1411 57.2861 66.2569 58.5987 65.9261 60.093C65.5952 61.5874 65.9423 63.3475 67.1953 64.2533C67.6564 64.5841 68.215 64.7957 68.6083 65.1971C68.8699 65.5063 69.0888 65.8493 69.2591 66.2168C70.6036 68.6456 72.8843 70.4176 75.57 71.1201C75.9915 71.2278 76.4261 71.2753 76.8609 71.2611H76.907H76.9911C77.9864 71.3235 79.0061 71.0577 79.3397 70.1763C79.3903 69.976 79.4659 69.7828 79.5647 69.6014C79.6584 69.4661 79.7983 69.3696 79.958 69.3302C80.2789 69.4035 80.5882 69.5202 80.8774 69.6773C82.2667 70.3979 83.7865 70.8322 85.3468 70.9547C85.6075 70.9755 85.8692 70.98 86.1305 70.9682C86.6735 71.019 87.2208 70.9409 87.7279 70.7404C88.2156 70.4929 88.6369 70.132 88.9565 69.6881C89.027 69.5987 89.0921 69.5037 89.1599 69.4169C88.8016 71.5829 88.1272 73.6845 87.1584 75.6546C87.1584 75.6546 85.5312 78.3666 85.6478 81.1003C85.5852 82.0962 85.7962 83.0904 86.258 83.975C86.258 83.975 86.3041 83.8557 86.3991 83.6685C86.8655 84.4496 88.3951 86.9474 89.3985 87.8234C89.4474 90.4025 89.4365 93.6325 89.1138 94.2969C88.5714 95.4333 86.8574 103.518 94.2286 109.031L95.929 112.755L88.9293 113.251C88.2215 113.154 79.0685 111.922 79.0224 113.715C78.9763 115.578 80.4055 133.721 85.1515 132.493C89.5748 131.348 88.1157 126.057 87.8961 125.347L88.0534 125.303L87.8798 125.255L91.419 121.9C91.4857 121.491 91.3882 121.073 91.1478 120.736L91.183 120.717L99.7313 121.1L101.741 125.466C101.741 125.466 105.15 130.651 102.386 135.015C99.6228 139.379 96.7644 146.202 96.3033 150.341C95.9263 153.725 93.4205 157.05 92.5228 158.146C90.92 158.688 84.7718 161.102 87.2262 164.755C90.0358 168.937 99.1591 176.897 102.847 176.623C106.536 176.349 105.058 173.667 105.058 173.667L101.974 170.678C101.974 170.678 101.432 164.31 101.651 162.447C101.771 161.479 101.057 160.782 100.295 160.486C100.586 158.412 101.321 154.479 102.899 152.307C105.109 149.259 112.207 135.845 112.207 135.845C112.207 135.845 114.463 133.844 113.956 127.888C113.752 125.485 113.638 123.375 113.573 121.707L121.606 122.068C121.606 122.068 130.222 121.203 124.37 111.971C118.517 102.739 106.077 93.6922 106.077 93.6922L105.966 87.978C106.53 88.119 106.861 88.1895 106.861 88.1895C106.861 88.1895 106.812 87.9834 106.731 87.6146L106.861 87.6444C106.861 87.6444 105.063 79.8636 104.51 73.6775L105.017 73.9108C110.362 80.0969 113.967 74.8681 113.967 74.8681C113.967 74.8681 125.257 58.9974 124.15 59.7242C123.919 59.8389 123.651 59.8555 123.407 59.7703L124.221 57.1777C124.221 57.1777 127.554 52.0845 122.716 49.2206C118.767 46.8829 118.87 54.2107 119.041 56.9797L118.846 56.8143C118.846 56.8143 115.068 62.5095 113.039 65.6825C111.011 68.8556 109.307 66.7673 109.307 66.7673L106.745 63.879C107.165 62.7219 107.372 61.4978 107.355 60.2667C107.468 58.5294 106.838 56.8259 105.622 55.5803C103.666 53.587 103.094 51.656 103.035 50.1698C103.054 49.3998 103.228 48.6416 103.547 47.9406L116.866 40.8893C116.866 40.8893 119.675 40.9327 123.453 35.1128C125.902 31.3905 128.596 27.8361 131.519 24.4735C131.519 24.4735 131.44 24.3596 131.304 24.1725C131.44 24.0125 131.519 23.9257 131.519 23.9257C131.519 23.9257 131.364 23.7006 131.101 23.3535L133.154 20.9859C133.089 22.056 133.081 23.1287 133.13 24.1996L134.193 27.793L134.789 47.7995C134.789 47.7995 134.144 49.6979 138.293 51.6208C141.803 53.248 147.362 55.96 148.984 56.76C148.924 56.9065 148.889 56.9851 148.889 56.9851L149.372 56.9526L149.442 56.9851C157.549 56.2583 157.272 64.3509 157.272 64.3509C157.272 64.3509 157.814 80.8128 155.338 86.5433C152.862 92.2738 153.218 99.3657 153.218 99.3657C153.218 99.3657 153.464 98.1562 154.845 99.7372C154.818 99.8756 154.788 100.025 154.755 100.179C153.963 104.147 152.314 112.587 152.008 116.009C151.671 119.128 151.069 122.213 150.21 125.23L149.396 140.371L154.579 140.624L154.522 141.166C154.465 141.724 154.136 142.218 153.643 142.487C151.87 143.449 147.677 146.826 148.013 157.245L147.834 158.921C147.547 161.76 146.686 164.51 145.304 167.006C145.185 167.218 145.079 167.421 144.989 167.616C145.003 167.506 145.052 167.404 145.13 167.326C145.13 167.326 142.437 167.885 142.991 175.161C143.544 182.437 144.374 183.709 145.48 183.799C146.587 183.888 151.989 185.209 151.699 182.527C151.409 179.845 151.156 173.886 151.514 172.978C151.872 172.069 153.342 169.618 151.948 169.026C152.353 167.357 152.548 165.645 152.531 163.928C152.531 163.928 155.243 159.654 157.183 158.062C159.122 156.47 160.166 153.766 160.868 150.286C160.917 150.059 166.582 146.283 165.75 143.148C165.603 142.606 165.498 142.126 165.416 141.692C165.381 141.499 165.351 141.318 165.324 141.15H165.424L166.577 134.237V140.968L167.26 141.057L167.236 141.6L166.946 148.054C166.893 149.312 166.618 150.549 166.132 151.71C164.912 154.599 162.661 161.029 163.274 167.982L163.209 174.182C163.013 174.22 160.198 174.884 160.733 181.911C161.275 189.185 162.113 190.459 163.219 190.549C164.326 190.638 169.728 191.959 169.441 189.277C169.153 186.595 168.898 180.637 169.256 179.728C169.614 178.819 170.26 176.417 168.866 175.825C168.873 175.011 169.072 174.209 169.446 173.485C170.054 172.452 172.082 167.54 173.609 163.762C175.17 159.939 176.038 155.868 176.172 151.74C176.172 151.694 176.172 151.648 176.172 151.602C176.213 150.209 176.512 148.836 177.053 147.553C177.678 146.116 178.171 144.627 178.529 143.102C178.567 142.921 178.597 142.744 178.624 142.56L179.947 142.736L184.465 123.183C184.465 123.183 185.702 112.584 185.097 107.797C185.073 107.599 185.046 107.418 185.013 107.241L185.284 107.266C185.284 107.266 186.206 104.904 185.93 94.8068C185.653 84.71 187.774 81.518 187.774 81.518C188.918 77.8893 190.182 76.6743 190.92 76.2675C191.11 76.1465 191.327 76.0756 191.552 76.0614L194.972 79.9748L195.601 80.6962C195.602 80.6818 195.602 80.6673 195.601 80.6528L195.872 80.9701C195.851 80.8092 195.844 80.6468 195.85 80.4847C197.676 81.5451 201.893 84.0238 204.409 85.8029C207.691 88.1217 208.591 87.8505 211.461 87.6091C213.202 87.4654 215.556 86.4891 217.134 85.746L217.278 85.6782C217.703 85.9049 218.15 86.0866 218.612 86.2206C218.612 86.2206 223.244 90.1449 223.692 82.9824C224.139 75.82 218.135 77.5503 218.135 77.5503ZM97.9929 160.961C97.5213 160.821 97.0665 160.629 96.6369 160.389L97.9929 160.961ZM90.741 83.4299L90.7572 84.4469L90.6867 84.4795C90.7084 84.1215 90.7247 83.7689 90.741 83.4299ZM163.19 174.206V174.602C163.086 174.491 163.086 174.318 163.19 174.206Z" fill="url(#paint0_linear_3_972)"/>
<rect x="170.111" y="55.0405" width="7.86483" height="8.27163" fill="#FF7590"/>
<path d="M160.553 150.549C159.862 154.007 158.837 156.695 156.938 158.279C155.04 159.862 152.374 164.109 152.374 164.109C152.328 169.759 150.836 171.475 150.836 171.475L149.299 171.882H145.502C145.502 171.882 144.824 169.984 144.688 168.855C144.642 168.479 144.911 167.847 145.285 167.169C146.642 164.683 147.486 161.951 147.766 159.133L147.943 157.465C147.623 147.113 151.74 143.753 153.467 142.796C153.951 142.526 154.273 142.035 154.327 141.483L154.633 138.524L164.847 139.026C164.847 139.026 164.63 139.927 165.017 142.009C165.096 142.441 165.202 142.921 165.343 143.455C166.157 146.571 160.597 150.322 160.553 150.549Z" fill="#FEC1C7"/>
<path d="M177.872 143.401C177.522 144.915 177.038 146.395 176.427 147.824C175.895 149.101 175.601 150.465 175.559 151.848C175.559 151.895 175.559 151.941 175.559 151.987C175.427 156.086 174.576 160.131 173.045 163.936C171.545 167.689 169.557 172.574 168.961 173.601C167.968 175.318 168.554 178.212 168.554 178.212L162.804 177.805L162.905 168.131C162.305 161.224 164.513 154.843 165.709 151.96C166.192 150.807 166.468 149.577 166.523 148.328L166.794 141.912L166.878 140.013C166.878 140.013 177.042 138.568 177.899 140.873C178.135 141.483 178.078 142.392 177.872 143.401Z" fill="#FEC1C7"/>
<path opacity="0.1" d="M165.018 142.009L154.316 141.483L154.622 138.524L164.847 139.026C164.847 139.026 164.622 139.924 165.018 142.009Z" fill="black"/>
<path opacity="0.1" d="M177.872 143.401L166.791 141.912L166.875 140.013C166.875 140.013 177.04 138.568 177.897 140.873C178.135 141.483 178.078 142.392 177.872 143.401Z" fill="black"/>
<path d="M183.695 123.608L179.266 143.045L166.159 141.283V134.592L165.026 141.467L149.296 140.697L150.109 125.645C150.952 122.641 151.542 119.572 151.872 116.47C152.179 113.069 153.79 104.681 154.568 100.741C154.839 99.4416 154.991 98.6226 154.991 98.6226C154.991 98.6226 181.932 104.226 183.695 106.26C183.996 106.607 184.194 107.344 184.316 108.323C184.907 113.075 183.695 123.608 183.695 123.608Z" fill="#BDD2E8"/>
<path opacity="0.1" d="M152.236 124.875C152.236 124.875 162.84 119.315 165.424 120.49L152.236 124.875Z" fill="black"/>
<path opacity="0.1" d="M158.021 106.704C158.021 106.704 166.835 113.395 167.106 115.201L158.021 106.704Z" fill="black"/>
<path opacity="0.1" d="M155.626 129.756C155.626 129.756 161.999 129.485 164.033 131.112L155.626 129.756Z" fill="black"/>
<path opacity="0.1" d="M167.106 122.602C167.106 122.602 170.135 132.517 168.822 135.229C167.51 137.941 166.156 134.594 166.156 134.594L167.106 122.602Z" fill="black"/>
<path d="M162.85 174.282C162.85 174.282 159.867 174.735 160.41 181.965C160.952 189.196 161.766 190.465 162.85 190.554C163.935 190.644 169.224 191.956 168.952 189.288C168.681 186.619 168.41 180.702 168.771 179.796C169.131 178.89 169.755 176.506 168.388 175.918L168.093 177.312C168.093 177.312 165.199 174.643 163.482 176.587C163.409 176.113 163.29 175.648 163.127 175.196C162.956 174.773 162.582 174.553 162.85 174.282Z" fill="#494457"/>
<path d="M217.446 85.5506C217.446 85.5506 216.763 85.933 215.759 86.4103C214.211 87.148 211.903 88.1189 210.194 88.2626C207.379 88.5013 206.498 88.7725 203.278 86.4673C200.808 84.699 196.672 82.2339 194.871 81.1815L194.087 80.7178L194.009 80.6717V80.6392L195.503 76.5332L200.792 73.7208L202.104 74.8463L206.012 78.1956C206.012 78.1956 206.622 79.1774 207.607 79.1096C208.591 79.0418 213.844 79.4811 213.844 79.4811L214.837 79.6439L216.928 79.991L217.446 85.5506Z" fill="#FEC1C7"/>
<path opacity="0.1" d="M217.446 85.5508C217.446 85.5508 216.763 85.9331 215.759 86.4104C214.699 85.868 213.381 84.851 213.888 83.1777C214.346 81.6726 214.471 80.4982 214.848 79.6521L216.939 79.9993L217.446 85.5508Z" fill="black"/>
<path d="M216.735 78.2281C216.735 78.2281 222.634 76.5331 222.195 83.6522C221.755 90.7712 217.21 86.874 217.21 86.874C217.21 86.874 213.345 85.857 214.159 83.1775C214.973 80.4981 214.737 78.8736 216.735 78.2281Z" fill="#FEC1C7"/>
<path d="M155.58 55.1762L149.434 57.758L149.339 57.7987L149.271 57.7661L148.889 57.5736C147.3 56.7817 141.838 54.0724 138.402 52.4641C134.334 50.5657 134.966 48.6673 134.966 48.6673L134.38 28.7802L133.338 25.2084C133.338 25.2084 132.603 13.102 138.491 10.0673C144.379 7.03254 140.571 27.6031 140.571 27.6031L141.027 31.8773C141.321 34.6115 141.861 37.3136 142.641 39.9509C142.895 40.818 143.055 41.71 143.118 42.6114C143.3 45.5024 144.656 45.3099 144.656 45.3099C146.797 45.6462 148.865 46.3489 150.768 47.3873C151.475 47.7604 152.152 48.1884 152.792 48.6673L155.58 55.1762Z" fill="#FEC1C7"/>
<path d="M177.457 64.6681L172.212 64.1257C172.212 64.1257 173.758 61.826 174.439 59.5885C174.535 59.2818 174.612 58.9693 174.669 58.6529C174.827 57.7661 174.786 56.9443 174.382 56.3504C172.847 54.0913 183.513 50.9264 183.513 50.9264C183.384 52.1767 183.345 53.4347 183.397 54.6907C183.427 55.5646 183.518 56.4354 183.668 57.2969C183.991 59.0516 184.633 60.7032 185.859 61.5493C189.209 63.8545 177.457 64.6681 177.457 64.6681Z" fill="#FEC1C7"/>
<path opacity="0.1" d="M177.457 64.6681L172.212 64.1257C172.212 64.1257 173.758 61.8259 174.439 59.5885C175.044 60.4482 175.253 60.4292 176.101 60.6001C176.101 60.6001 181.395 61.3839 183.673 57.2969C183.996 59.0515 184.639 60.7032 185.865 61.5493C189.209 63.8545 177.457 64.6681 177.457 64.6681Z" fill="black"/>
<path opacity="0.1" d="M194.882 81.1815C194.876 81.3428 194.883 81.5043 194.904 81.6643L194.09 80.7178L194.022 80.6392L195.517 76.5332L200.805 73.7208L202.118 74.8463C200.238 75.565 194.966 77.8458 194.882 81.1815Z" fill="black"/>
<path opacity="0.1" d="M155.58 55.1762L149.434 57.758H149.271L148.797 57.7906C148.797 57.7906 148.832 57.7119 148.889 57.5655C149.402 56.3206 151.78 50.243 150.752 47.3792C151.459 47.7523 152.135 48.1803 152.775 48.6592L155.58 55.1762Z" fill="black"/>
<path opacity="0.1" d="M184.316 108.315C181.924 108.101 157.993 105.888 155.761 102.365C155.409 101.791 155.01 101.247 154.568 100.738C154.839 99.4389 154.991 98.6199 154.991 98.6199C154.991 98.6199 181.932 104.223 183.695 106.257C183.996 106.599 184.194 107.334 184.316 108.315Z" fill="black"/>
<path d="M176.101 60.8713C176.101 60.8713 181.452 61.6632 183.714 57.5057C183.714 57.5057 187.492 60.6082 189.751 60.874C192.01 61.1398 202.497 74.3419 202.497 74.3419C202.497 74.3419 194.09 77.0539 194.633 81.3931L190.654 76.7827C190.654 76.7827 188.666 76.6905 186.95 82.2067C186.95 82.2067 184.869 85.3689 185.141 95.4034C185.412 105.438 184.509 107.789 184.509 107.789C184.509 107.789 158.11 105.53 155.761 101.823C153.413 98.1154 153.049 99.9243 153.049 99.9243C153.049 99.9243 152.686 92.873 155.127 87.1778C157.568 81.4826 157.025 65.121 157.025 65.121C157.025 65.121 157.296 57.0745 149.342 57.7986C149.342 57.7986 152.686 50.0233 151.151 47.04C151.151 47.04 155.726 48.2821 158.986 48.3201C160.987 48.3357 162.959 48.799 164.757 49.6761C165.736 50.1561 166.639 50.7609 167.152 51.4823C168.687 53.6519 171.22 52.6593 171.22 52.6593C171.858 54.6447 172.647 56.5785 173.579 58.4441C173.685 58.642 173.791 58.8373 173.899 59.0244C174.057 59.2956 174.219 59.5668 174.382 59.7892C175.033 60.7194 175.217 60.695 176.101 60.8713Z" fill="#505DD2"/>
<path opacity="0.1" d="M183.397 54.6825C183.108 55.0919 182.787 55.4774 182.437 55.8351C180.655 57.6636 178.21 58.6944 175.657 58.6936C175.33 58.6937 175.003 58.6774 174.678 58.6448C174.835 57.7579 174.794 56.9362 174.39 56.3423C172.855 54.0831 183.521 50.9182 183.521 50.9182C183.389 52.1683 183.347 53.4264 183.397 54.6825Z" fill="black"/>
<path d="M185.141 48.9384C185.141 54.1807 180.891 58.4304 175.649 58.4304C170.406 58.4304 166.156 54.1807 166.156 48.9384C166.156 43.6961 170.406 39.4464 175.649 39.4464C178.169 39.4369 180.589 40.434 182.371 42.2161C184.153 43.9983 185.15 46.4181 185.141 48.9384Z" fill="#FEC1C7"/>
<path opacity="0.1" d="M189.843 70.6346L190.038 76.9861C190.038 76.9861 192.873 74.7026 192.962 72.533C193.052 70.3634 189.843 70.6346 189.843 70.6346Z" fill="black"/>
<path opacity="0.1" d="M166.97 76.9861C166.97 76.9861 174.428 87.2239 178.767 88.2626C183.106 89.3013 168.597 80.3056 166.97 76.9861Z" fill="black"/>
<path opacity="0.1" d="M174.881 78.052C174.881 78.052 179.038 82.7492 182.021 83.335L174.881 78.052Z" fill="black"/>
<path opacity="0.1" d="M160.236 89.8899C160.236 89.8899 167.83 97.3479 172.169 97.8009L160.236 89.8899Z" fill="black"/>
<path opacity="0.1" d="M185.141 48.9385C185.142 51.4199 184.168 53.8023 182.429 55.5721L181.387 54.9239C180.984 54.7142 180.637 54.4122 180.373 54.0425C180.029 53.4676 180.129 52.7462 180.156 52.0763C180.213 50.6579 179.822 49.1229 178.713 48.2361C176.915 46.796 174.032 47.5934 172.204 46.1804C171.764 45.8066 171.376 45.3751 171.052 44.8976L169.338 42.6005C169.235 42.4649 169.11 42.3293 168.977 42.1693C171.706 39.4862 175.779 38.704 179.307 40.1855C182.836 41.6671 185.129 45.1225 185.124 48.9494L185.141 48.9385Z" fill="black"/>
<path d="M169.929 36.7833C170.778 36.1352 171.814 35.7934 172.768 35.3161C173.723 34.8388 174.566 34.2313 175.521 33.8245C176.476 33.4177 177.579 33.1791 178.569 33.5181C180.693 34.2476 181.495 37.2145 183.679 37.7352C184.047 37.822 184.427 37.8302 184.799 37.8871C186.233 38.159 187.482 39.0329 188.229 40.2872C188.958 41.5385 189.333 42.9643 189.314 44.4122C189.344 45.2158 189.228 46.0181 188.97 46.7798C188.324 48.5507 186.705 49.763 185.612 51.2953C184.578 52.7616 184.029 54.5153 184.042 56.3098L181.395 54.6636C180.992 54.4547 180.644 54.1526 180.381 53.7822C180.036 53.2073 180.137 52.4859 180.164 51.816C180.221 50.3976 179.83 48.8626 178.724 47.9758C176.923 46.5357 174.04 47.333 172.215 45.9201C171.775 45.5463 171.387 45.1148 171.062 44.6373L169.348 42.3402C168.977 41.8412 168.264 41.2202 168.101 40.6127C167.74 39.3055 168.974 37.5183 169.929 36.7833Z" fill="#362133"/>
<path opacity="0.1" d="M181.691 54.3571C181.287 54.1483 180.94 53.8461 180.677 53.4757C180.332 52.9008 180.432 52.1794 180.46 51.5095C180.517 50.0912 180.126 48.5562 179.017 47.6693C177.219 46.2292 174.336 47.0266 172.508 45.6136C172.068 45.2398 171.68 44.8083 171.355 44.3308L169.641 42.0338C169.267 41.5348 168.557 40.9137 168.394 40.3062C168.098 39.2594 168.847 37.8952 169.647 37.022C168.749 37.8519 167.765 39.4275 168.098 40.6018C168.272 41.2093 168.974 41.8304 169.346 42.3294L171.06 44.6264C171.385 45.104 171.772 45.5354 172.212 45.9092C174.032 47.3222 176.915 46.5249 178.721 47.9649C179.828 48.8518 180.218 50.3867 180.161 51.8051C180.134 52.475 180.034 53.1964 180.378 53.7713C180.641 54.1417 180.989 54.4439 181.393 54.6528L184.039 56.299C184.039 56.1416 184.039 55.9843 184.056 55.8298L181.691 54.3571Z" fill="black"/>
<path d="M145.114 167.486C145.114 167.486 142.472 168.028 143.015 175.272C143.557 182.516 144.371 183.771 145.456 183.861C146.54 183.95 151.829 185.263 151.558 182.594C151.286 179.926 151.015 174.008 151.376 173.102C151.737 172.197 153.169 169.764 151.802 169.175L150.698 170.618C150.698 170.618 147.804 167.95 146.088 169.894C146.088 169.894 144.482 168.118 145.114 167.486Z" fill="#494457"/>
<path opacity="0.1" d="M146.785 171.977C147.357 172.248 147.891 172.579 148.461 172.85C149.022 173.144 149.648 173.291 150.28 173.279C150.549 173.274 150.809 173.184 151.024 173.021" fill="black"/>
<path opacity="0.1" d="M164.168 179.061C164.508 179.373 164.771 179.771 165.153 180.029C165.695 180.392 166.39 180.414 167.051 180.422C167.161 180.432 167.272 180.418 167.377 180.382C167.495 180.317 167.595 180.224 167.667 180.11L168.022 179.652" fill="black"/>
<path d="M119.602 58.7912C119.602 58.7912 118.382 47.2218 123.128 50.0694C127.874 52.917 124.606 57.9776 124.606 57.9776L123.491 61.5493L119.602 58.7912Z" fill="#FFC1C7"/>
<path d="M127.196 21.8184L129.908 19.1552C129.908 19.1552 135.107 4.19301 140.26 8.03592C145.412 11.8788 133.729 21.596 133.729 21.596L130.632 25.2111L127.196 21.8184Z" fill="#FFC1C7"/>
<path d="M87.5082 80.989L87.3726 84.0617C87.3726 84.0617 89.8595 88.4009 90.8982 88.7182C91.9368 89.0356 91.8474 79.5408 91.8474 79.5408L87.5082 80.989Z" fill="#3C4BD0"/>
<path d="M91.6655 77.6152L91.8499 88.9406H104.458L103.509 82.3423L91.6655 77.6152Z" fill="#FFC1C7"/>
<path d="M94.6054 105.891L95.194 109.506L102.562 125.87C102.562 125.87 105.906 131.023 103.194 135.362C100.482 139.701 97.6809 146.481 97.228 150.593C96.7751 154.704 93.2061 158.729 93.2061 158.729L100.981 162.029C100.981 162.029 101.524 155.566 103.693 152.537C105.863 149.508 112.822 136.176 112.822 136.176C112.822 136.176 115.038 134.185 114.541 128.265C114.045 122.344 114.089 118.184 114.089 118.184L113.321 108.738L94.6054 105.891Z" fill="#575988"/>
<path opacity="0.1" d="M94.6054 105.891L95.194 109.506L102.562 125.87C102.562 125.87 105.906 131.023 103.194 135.362C100.482 139.701 97.6809 146.481 97.228 150.593C96.7751 154.704 93.2061 158.729 93.2061 158.729L100.981 162.029C100.981 162.029 101.524 155.566 103.693 152.537C105.863 149.508 112.822 136.176 112.822 136.176C112.822 136.176 115.038 134.185 114.541 128.265C114.045 122.344 114.089 118.184 114.089 118.184L113.321 108.738L94.6054 105.891Z" fill="black"/>
<path d="M93.8814 158.232C93.8814 158.232 85.5636 160.763 88.3217 164.923C91.0799 169.083 100.029 176.991 103.645 176.72C107.26 176.449 105.814 173.78 105.814 173.78L102.785 170.797C102.785 170.797 102.242 164.47 102.47 162.618C102.698 160.765 99.8939 159.906 99.5305 160.991C99.1671 162.075 93.8814 158.232 93.8814 158.232Z" fill="#494457"/>
<path d="M99.1237 84.1295L92.5308 84.8591C91.3095 84.994 90.3949 86.0417 90.4263 87.27C90.4968 89.9061 90.5429 94.0989 90.1741 94.8636C89.6317 95.9946 87.9611 104.041 95.1913 109.508L105.001 112.627L89.271 113.758L89.77 122.483L92.2108 121.127L122.043 122.483C122.043 122.483 130.496 121.623 124.755 112.448C119.014 103.274 106.812 94.2779 106.812 94.2779L106.677 87.1344L105.771 85.057L99.1237 84.1295Z" fill="#575988"/>
<path opacity="0.1" d="M107.306 112.489C109.467 111.545 111.924 111.545 114.086 112.489H107.306Z" fill="black"/>
<path d="M90.0412 113.709C90.0412 113.709 80.3241 112.31 80.2779 114.162C80.2318 116.015 81.634 134.05 86.2905 132.829C90.947 131.609 88.9564 125.642 88.9564 125.642L92.4386 122.298C92.4386 122.298 92.7993 120.446 90.4941 120.625L90.0412 113.709Z" fill="#494457"/>
<path d="M106.132 63.1304L109.972 67.5157C109.972 67.5157 111.645 69.5959 113.633 66.431C115.621 63.2661 119.328 57.6169 119.328 57.6169C119.328 57.6169 123.442 61.2321 124.527 60.5107C125.612 59.7892 114.539 75.565 114.539 75.565C114.539 75.565 111.013 80.7613 105.768 74.6158L104.233 73.8917L106.132 63.1304Z" fill="#3C4BD0"/>
<circle cx="94.383" cy="37.3094" r="8.00043" fill="#FFC1C7"/>
<path opacity="0.1" d="M94.3804 41.6161C94.3804 41.6161 87.5055 44.8705 88.3191 50.5658C89.1327 56.261 89.2683 63.4478 89.2683 63.4478C89.2683 63.4478 92.3898 68.0582 88.2513 76.8723C88.2513 76.8723 85.6071 81.3471 87.3699 84.6015C87.3699 84.6015 89.3253 79.4487 94.3804 83.2455C99.4356 87.0423 107.574 88.8051 107.574 88.8051C107.574 88.8051 103.371 70.3634 105.947 67.787C105.947 67.787 110.422 61.1426 106.354 56.939C102.286 52.7354 104.32 48.8029 104.32 48.8029L117.384 41.7978C117.384 41.7978 120.139 41.8412 123.846 36.0565C126.247 32.3598 128.889 28.8264 131.757 25.4797C131.757 25.4797 128.953 21.276 126.333 20.9587C126.333 20.9587 125.292 22.0435 124.571 24.9834C124.185 26.5428 121.568 29.149 119.201 31.2508C117.519 32.7424 115.898 34.291 114.278 35.8612C113.08 37.0138 110.411 38.6628 104.591 39.5957C95.0123 41.1225 94.3804 41.6161 94.3804 41.6161Z" fill="black"/>
<path d="M94.3804 41.0736C94.3804 41.0736 87.5055 44.328 88.3191 50.0233C89.1327 55.7185 89.2683 62.9053 89.2683 62.9053C89.2683 62.9053 92.3898 67.5157 88.2513 76.3298C88.2513 76.3298 85.6071 80.8046 87.3699 84.059C87.3699 84.059 89.3253 78.9062 94.3804 82.703C99.4356 86.4998 107.574 88.2626 107.574 88.2626C107.574 88.2626 103.371 69.821 105.947 67.2445C105.947 67.2445 110.422 60.6001 106.354 56.3965C102.286 52.1929 104.32 48.2605 104.32 48.2605L117.384 41.2553C117.384 41.2553 120.139 41.2987 123.846 35.514C126.247 31.8173 128.889 28.2839 131.757 24.9371C131.757 24.9371 128.953 20.7336 126.333 20.4163C126.333 20.4163 125.292 21.5011 124.571 24.4409C124.185 26.0003 121.568 28.6065 119.201 30.7083C117.519 32.1999 115.898 33.7485 114.278 35.3188C113.08 36.4714 110.411 38.1203 104.591 39.0532C95.0123 40.58 94.3804 41.0736 94.3804 41.0736Z" fill="#505DD2"/>
<path opacity="0.1" d="M100.301 75.1555C100.301 75.1555 105.633 83.0204 105.768 84.3764C105.771 84.3764 104.957 75.923 100.301 75.1555Z" fill="black"/>
<path opacity="0.1" d="M93.2957 48.6672C93.2957 48.6672 97.0138 53.1421 102.386 49.3914C99.3854 50.4103 96.0974 50.1484 93.2957 48.6672Z" fill="black"/>
<path opacity="0.1" d="M96.1784 28.9429C96.0809 28.5364 95.879 28.1625 95.5926 27.8581C94.3667 26.3204 93.0351 24.742 91.2099 24.0125C88.7232 23.0834 85.9211 23.8814 84.297 25.9814C83.6407 26.8655 83.2502 27.9178 82.6834 28.8643C81.6365 30.6162 80.0175 31.9668 78.2764 33.0353C77.2268 33.6781 76.1203 34.234 75.1304 34.9636C71.5316 37.6132 69.8692 42.5111 70.7749 46.8964C71.1736 48.8165 72.0171 50.7095 71.7892 52.6594C71.613 54.1727 70.8075 55.5287 69.9912 56.8142C69.1748 58.0997 68.3043 59.4015 67.9788 60.8823C67.6534 62.363 67.9951 64.1177 69.2236 65.0154C69.6766 65.3462 70.2217 65.5578 70.6095 65.9537C70.8662 66.2619 71.0805 66.603 71.2468 66.968C72.5524 69.3767 74.7915 71.1421 77.4383 71.8496C78.6045 72.1561 80.1693 72.0449 80.5951 70.9167C80.644 70.7175 80.7178 70.5252 80.8148 70.3445C81.1999 69.802 82.0488 70.1058 82.6454 70.4177C84.0037 71.1277 85.4918 71.5549 87.0199 71.6733C87.6259 71.7532 88.2424 71.6796 88.8125 71.4591C89.2939 71.2146 89.7082 70.8562 90.0194 70.415C91.4459 68.5572 91.8554 66.13 92.0995 63.8004C92.2595 62.2843 92.3707 60.7412 92.0805 59.2442C91.6194 56.8414 90.1577 54.5958 90.3746 52.1604C90.6051 49.5569 92.7178 47.428 93.0405 44.838C93.2046 43.4819 92.8659 42.1128 92.0886 40.9897C91.8018 40.6428 91.5586 40.2621 91.3645 39.856C91.1751 39.4358 91.2611 38.9426 91.5815 38.6112C91.7532 38.4902 91.9438 38.3986 92.1456 38.34C93.8894 37.6701 94.8196 35.9236 94.9443 34.1364C94.9932 33.4584 94.9443 32.8346 95.1315 32.1729C95.4298 31.1505 96.333 30.0331 96.1784 28.9429Z" fill="black"/>
<path d="M95.6361 28.9429C95.5387 28.5364 95.3367 28.1625 95.0504 27.8581C93.8245 26.3204 92.4929 24.742 90.6677 24.0125C88.1809 23.0834 85.3789 23.8814 83.7548 25.9814C83.0985 26.8655 82.708 27.9178 82.1411 28.8643C81.0943 30.6162 79.4752 31.9668 77.7342 33.0353C76.6846 33.6781 75.5781 34.234 74.5882 34.9636C70.9893 37.6132 69.3269 42.5111 70.2327 46.8964C70.6314 48.8165 71.4748 50.7095 71.247 52.6594C71.0707 54.1727 70.2653 55.5287 69.4489 56.8142C68.6326 58.0997 67.7621 59.4015 67.4366 60.8823C67.1112 62.363 67.4529 64.1177 68.6814 65.0154C69.1344 65.3462 69.6794 65.5578 70.0673 65.9537C70.3239 66.2619 70.5382 66.603 70.7046 66.968C72.0102 69.3767 74.2493 71.142 76.8961 71.8496C78.0623 72.1561 79.6271 72.0449 80.0529 70.9167C80.1018 70.7175 80.1756 70.5252 80.2726 70.3444C80.6577 69.802 81.5065 70.1058 82.1032 70.4177C83.4614 71.1277 84.9496 71.5549 86.4776 71.6733C87.0837 71.7532 87.7001 71.6796 88.2703 71.4591C88.7517 71.2146 89.166 70.8562 89.4771 70.415C90.9037 68.5572 91.3132 66.13 91.5572 63.8004C91.7173 62.2843 91.8285 60.7412 91.5382 59.2442C91.0772 56.8414 89.6154 54.5958 89.8324 52.1604C90.0629 49.5569 92.1756 47.428 92.4983 44.838C92.6623 43.482 92.3237 42.1128 91.5464 40.9897C91.2596 40.6428 91.0164 40.2621 90.8223 39.856C90.6329 39.4358 90.7188 38.9426 91.0392 38.6112C91.211 38.4902 91.4016 38.3986 91.6033 38.34C93.3472 37.6701 94.2774 35.9236 94.4021 34.1364C94.451 33.4584 94.4021 32.8346 94.5893 32.1729C94.8876 31.1505 95.7907 30.0331 95.6361 28.9429Z" fill="#362133"/>
<g opacity="0.1">
<path d="M79.4643 70.3308C79.3674 70.512 79.2928 70.704 79.2419 70.9031C78.9897 71.5757 78.3307 71.8848 77.5957 71.9608C78.6181 72.0638 79.7111 71.817 80.0555 70.9031C80.1064 70.704 80.1811 70.512 80.2779 70.3308C80.3462 70.2312 80.4398 70.1516 80.5491 70.1003C80.1369 69.981 79.7138 69.9864 79.4643 70.3308Z" fill="black"/>
<path d="M95.6495 28.9401C95.5547 28.5326 95.3524 28.1581 95.0637 27.8553C93.8378 26.3176 92.5062 24.7392 90.6811 24.0097C89.8878 23.7 89.0352 23.5721 88.186 23.6354C88.7626 23.6717 89.33 23.798 89.8675 24.0097C91.6926 24.7392 93.0242 26.3176 94.2501 27.8553C94.5388 28.158 94.7411 28.5326 94.8359 28.9401C94.9905 30.0249 94.09 31.1504 93.7917 32.1538C93.5938 32.8156 93.6507 33.4366 93.6046 34.1173C93.4771 35.9018 92.5496 37.6429 90.8031 38.321C90.6014 38.3795 90.4108 38.4712 90.2391 38.5921C89.9184 38.9246 89.8334 39.4193 90.0248 39.8397C90.2179 40.2457 90.4601 40.6264 90.7462 40.9733C91.5242 42.0952 91.8639 43.4634 91.7007 44.8189C91.3754 47.4143 89.26 49.5405 89.0322 52.1414C88.8152 54.5822 90.2797 56.8223 90.738 59.2224C91.0255 60.7195 90.917 62.2626 90.757 63.7786C90.5129 66.1082 90.1061 68.5382 88.6769 70.3932C88.3668 70.8344 87.9534 71.1929 87.4728 71.4373C87.1918 71.5605 86.8919 71.6348 86.5859 71.657C87.1622 71.7256 87.7465 71.6501 88.2864 71.4373C88.7678 71.1993 89.184 70.8474 89.4986 70.4122C90.9279 68.5572 91.3347 66.1272 91.5787 63.7976C91.7388 62.2816 91.8499 60.7384 91.5598 59.2414C91.1014 56.8413 89.637 54.593 89.8539 52.1603C90.0872 49.5541 92.1971 47.4279 92.5225 44.8379C92.6856 43.4824 92.3459 42.1142 91.5679 40.9923C91.2819 40.6454 91.0397 40.2646 90.8465 39.8587C90.6552 39.4382 90.7401 38.9436 91.0608 38.6111C91.2325 38.4902 91.4231 38.3985 91.6249 38.3399C93.3714 37.6674 94.2989 35.9208 94.4264 34.1363C94.4725 33.4556 94.4264 32.8345 94.6135 32.1728C94.9037 31.1504 95.8041 30.0331 95.6495 28.9401Z" fill="black"/>
</g>
<path opacity="0.1" d="M85.3818 124.652C86.3302 125.688 87.787 126.09 89.1325 125.688L85.3818 124.652Z" fill="black"/>
<path opacity="0.1" d="M102.76 171.028C102.236 171.452 101.552 171.624 100.889 171.5L102.76 171.028Z" fill="black"/>
<ellipse opacity="0.1" cx="29.3952" cy="178.212" rx="7.30345" ry="1.23396" fill="#6C63FF"/>
<ellipse cx="229.346" cy="202.783" rx="7.30345" ry="1.23396" fill="#6C63FF"/>
<ellipse opacity="0.1" cx="229.346" cy="179.031" rx="7.30345" ry="1.23396" fill="#6C63FF"/>
<ellipse opacity="0.1" cx="50.104" cy="189.67" rx="7.30345" ry="1.23396" fill="#6C63FF"/>
<ellipse cx="252.445" cy="189.67" rx="10.905" ry="1.84417" fill="#6C63FF"/>
<ellipse opacity="0.1" cx="95.6523" cy="204.106" rx="24.6142" ry="4.16022" fill="#6C63FF"/>
<path d="M256.952 186.654C257.45 186.248 257.813 185.701 257.993 185.084C258.126 184.46 257.86 183.714 257.266 183.487C256.599 183.232 255.886 183.693 255.346 184.162C254.807 184.631 254.186 185.16 253.478 185.062C254.218 184.392 254.552 183.382 254.356 182.402C254.326 182.202 254.241 182.015 254.112 181.859C253.741 181.463 253.071 181.634 252.626 181.946C251.216 182.939 250.823 184.854 250.815 186.578C250.674 185.957 250.793 185.309 250.79 184.68C250.787 184.051 250.611 183.324 250.074 182.99C249.742 182.808 249.368 182.714 248.989 182.719C248.355 182.697 247.65 182.76 247.216 183.224C246.673 183.801 246.817 184.767 247.286 185.393C247.755 186.02 248.466 186.424 249.12 186.863C249.646 187.176 250.094 187.603 250.432 188.113C250.471 188.184 250.504 188.259 250.53 188.336H254.503C255.391 187.888 256.215 187.322 256.952 186.654Z" fill="#6C63FF"/>
<path d="M233.856 199.832C234.353 199.426 234.716 198.878 234.895 198.262C235.028 197.638 234.765 196.906 234.168 196.664C233.501 196.409 232.788 196.871 232.248 197.34C231.708 197.809 231.087 198.338 230.38 198.24C231.12 197.569 231.454 196.559 231.258 195.58C231.229 195.38 231.145 195.192 231.014 195.037C230.645 194.641 229.973 194.812 229.531 195.124C228.121 196.117 227.727 198.031 227.719 199.756C227.575 199.135 227.695 198.487 227.692 197.858C227.689 197.228 227.513 196.502 226.976 196.168C226.643 195.989 226.269 195.9 225.891 195.91C225.257 195.889 224.552 195.951 224.118 196.415C223.575 196.992 223.719 197.958 224.188 198.585C224.657 199.211 225.368 199.615 226.024 200.054C226.549 200.367 226.997 200.795 227.334 201.305C227.373 201.376 227.406 201.45 227.432 201.527H231.405C232.294 201.075 233.119 200.504 233.856 199.832Z" fill="#6C63FF"/>
<path d="M58.3757 175.367C58.3757 175.367 54.5654 162.428 59.0917 152.906C61.0191 148.923 61.6016 144.421 60.7514 140.078C60.332 138.021 59.7247 136.007 58.9371 134.06" stroke="#535461" stroke-width="2"/>
<path d="M61.7442 128.042C61.7442 129.629 58.8721 134.226 58.8721 134.226C58.8721 134.226 56.0028 129.629 56.0028 128.042C55.9707 126.996 56.5107 126.015 57.4121 125.482C58.3135 124.949 59.4335 124.949 60.3349 125.482C61.2363 126.015 61.7763 126.996 61.7442 128.042Z" fill="#6C63FF"/>
<path d="M66.4901 136.827C65.6277 138.155 60.719 140.455 60.719 140.455C60.719 140.455 60.8085 135.031 61.6709 133.705C62.5521 132.423 64.2935 132.076 65.5989 132.922C66.9044 133.767 67.2995 135.498 66.4901 136.827Z" fill="#6C63FF"/>
<path d="M66.284 151.835C64.8684 152.551 59.4688 152.057 59.4688 152.057C59.4688 152.057 62.2811 147.422 63.6968 146.709C65.1036 146.049 66.7803 146.628 67.4806 148.015C68.1808 149.402 67.6506 151.095 66.284 151.835Z" fill="#6C63FF"/>
<path d="M63.5691 163.163C62.2944 164.104 56.8894 164.519 56.8894 164.519C56.8894 164.519 58.88 159.475 60.1438 158.531C61.4177 157.681 63.1342 157.98 64.0456 159.211C64.957 160.441 64.7426 162.171 63.5582 163.141L63.5691 163.163Z" fill="#6C63FF"/>
<path d="M54.69 140.764C55.829 141.868 61.1256 143.013 61.1256 143.013C61.1256 143.013 59.8292 137.749 58.6848 136.645C57.54 135.589 55.7619 135.638 54.6768 136.755C53.5917 137.872 53.5951 139.651 54.6846 140.764H54.69Z" fill="#6C63FF"/>
<path d="M51.6851 154.045C53.1008 154.758 58.4977 154.265 58.4977 154.265C58.4977 154.265 55.6853 149.63 54.2697 148.917C52.8535 148.202 51.1265 148.772 50.4126 150.188C49.6988 151.605 50.2686 153.331 51.6851 154.045Z" fill="#6C63FF"/>
<path d="M50.5325 167.353C51.8071 168.297 57.2122 168.709 57.2122 168.709C57.2122 168.709 55.2215 163.665 53.9577 162.724C52.6839 161.874 50.9674 162.173 50.0561 163.404C49.1448 164.634 49.3591 166.363 50.5433 167.334L50.5325 167.353Z" fill="#6C63FF"/>
<path d="M49.3608 174.553C49.3608 174.553 54.0011 173.631 55.2405 172.403C56.4799 171.174 62.0449 169.026 62.6633 170.561C63.2816 172.096 71.0162 177.317 65.7577 178.239C60.4991 179.161 53.3828 179.468 51.8369 178.855C50.291 178.242 49.3608 174.553 49.3608 174.553Z" fill="#A8A8A8"/>
<path opacity="0.2" d="M65.7658 177.661C60.5072 178.583 53.3909 178.89 51.8451 178.274C50.6653 177.808 49.8463 175.562 49.5236 174.513L49.3608 174.553C49.3608 174.553 50.2884 178.239 51.8369 178.855C53.3855 179.47 60.4991 179.161 65.7577 178.239C67.2764 177.968 67.7103 177.349 67.5476 176.557C67.4255 177.065 66.8967 177.463 65.7658 177.661Z" fill="black"/>
<path d="M230.841 161.24C230.841 161.24 232.332 163.19 230.154 166.122C227.977 169.053 226.181 171.546 226.9 173.382C226.9 173.382 230.187 167.917 232.866 167.841C235.546 167.765 233.778 164.519 230.841 161.24Z" fill="#6C63FF"/>
<path opacity="0.1" d="M230.841 161.24C230.971 161.429 231.074 161.635 231.147 161.853C233.756 164.918 235.145 167.779 232.636 167.849C230.301 167.917 227.499 172.094 226.827 173.149C226.849 173.23 226.875 173.311 226.906 173.39C226.906 173.39 230.192 167.925 232.872 167.849C235.551 167.773 233.778 164.519 230.841 161.24Z" fill="black"/>
<path d="M233.612 163.724C233.612 164.41 233.534 164.966 233.439 164.966C233.344 164.966 233.268 164.424 233.268 163.724C233.268 163.025 233.363 163.361 233.458 163.361C233.552 163.361 233.612 163.038 233.612 163.724Z" fill="#FFD037"/>
<path d="M234.561 164.543C233.959 164.872 233.433 165.07 233.39 164.985C233.347 164.901 233.794 164.57 234.396 164.242C234.998 163.914 234.762 164.153 234.808 164.242C234.854 164.332 235.164 164.215 234.561 164.543Z" fill="#FFD037"/>
<path d="M222.973 161.24C222.973 161.24 221.481 163.19 223.659 166.122C225.837 169.053 227.632 171.546 226.914 173.382C226.914 173.382 223.629 167.917 220.947 167.841C218.265 167.765 220.031 164.519 222.973 161.24Z" fill="#6C63FF"/>
<path opacity="0.1" d="M222.973 161.24C222.843 161.429 222.739 161.635 222.667 161.853C220.058 164.918 218.669 167.779 221.178 167.849C223.513 167.917 226.314 172.094 226.987 173.149C226.965 173.231 226.938 173.311 226.905 173.39C226.905 173.39 223.621 167.925 220.939 167.849C218.257 167.773 220.031 164.519 222.973 161.24Z" fill="black"/>
<path d="M220.201 163.724C220.201 164.41 220.28 164.966 220.375 164.966C220.47 164.966 220.546 164.424 220.546 163.724C220.546 163.025 220.451 163.361 220.356 163.361C220.261 163.361 220.201 163.038 220.201 163.724Z" fill="#FFD037"/>
<path d="M219.252 164.543C219.854 164.872 220.378 165.07 220.424 164.985C220.47 164.901 220.02 164.57 219.418 164.242C218.816 163.914 219.052 164.153 219.005 164.242C218.959 164.332 218.65 164.215 219.252 164.543Z" fill="#FFD037"/>
<path d="M220.676 173.135C220.676 173.135 224.842 173.005 226.1 172.113C227.358 171.22 232.508 170.152 232.82 171.57C233.132 172.988 239.08 178.7 234.377 178.738C229.674 178.776 223.45 178.006 222.197 177.244C220.945 176.482 220.676 173.135 220.676 173.135Z" fill="#A8A8A8"/>
<path opacity="0.2" d="M234.458 178.253C229.756 178.291 223.532 177.52 222.279 176.758C221.324 176.178 220.942 174.092 220.817 173.13H220.676C220.676 173.13 220.947 176.49 222.195 177.252C223.442 178.014 229.672 178.784 234.374 178.746C235.73 178.746 236.2 178.253 236.175 177.539C235.985 177.976 235.467 178.245 234.458 178.253Z" fill="black"/>
<defs>
<linearGradient id="paint0_linear_3_972" x1="105.285" y1="52.4608" x2="105.285" y2="52.4608" gradientUnits="userSpaceOnUse">
<stop offset="1" stop-color="#808080" stop-opacity="0.101961"/>
<stop offset="0.54" stop-color="#808080" stop-opacity="0.121569"/>
<stop stop-color="#808080" stop-opacity="0.25098"/>
</linearGradient>
</defs>
</svg>
