<svg width="47" height="28" viewBox="0 0 47 28" fill="none" xmlns="http://www.w3.org/2000/svg">
<path d="M23.4706 24.3332C20.9847 26.3916 17.76 27.6343 14.2362 27.6343C6.3738 27.6343 0 21.4477 0 13.8175C0 6.18636 6.3738 -0.000244141 14.2362 -0.000244141C17.76 -0.000244141 20.9847 1.24243 23.4706 3.30089C25.9566 1.24243 29.1813 -0.000244141 32.7051 -0.000244141C40.5675 -0.000244141 46.9413 6.18636 46.9413 13.8175C46.9413 21.4477 40.5675 27.6343 32.7051 27.6343C29.1813 27.6343 25.9566 26.3916 23.4706 24.3332Z" fill="#ED0006"/>
<path d="M32.7042 27.6343C29.3202 27.6343 26.0409 26.462 23.4702 24.3336C26.6492 21.7014 28.4724 17.869 28.4724 13.8175C28.4724 9.76608 26.6492 5.9328 23.4702 3.30052C26.0415 1.17145 29.3208 -0.000244141 32.7042 -0.000244141C36.5068 -0.000244141 40.0818 1.43708 42.7707 4.04695C45.4596 6.65679 46.9404 10.1267 46.9404 13.8175C46.9404 17.5078 45.4596 20.9775 42.7707 23.5872C40.0818 26.197 36.5068 27.6343 32.7042 27.6343Z" fill="#F9A000"/>
<path d="M18.4697 13.8166C18.4697 9.60603 20.4106 5.83523 23.4708 3.30103C26.5317 5.83538 28.4723 9.60607 28.4723 13.8166C28.4723 18.0271 26.5316 21.798 23.4713 24.3325C20.4105 21.7983 18.4697 18.0275 18.4697 13.8166Z" fill="#FF5E00"/>
</svg>
