<svg width="86" height="48" viewBox="0 0 86 48" fill="none" xmlns="http://www.w3.org/2000/svg">
<path d="M35.7366 38.224L31.8777 34.4475C31.2366 33.8217 30.1635 34.0568 29.846 34.8948L27.0586 42.2371L26.5564 43.5576C26.1244 44.6948 27.4158 45.713 28.4218 45.0261L35.5687 40.1398C36.216 39.6971 36.2969 38.7721 35.7366 38.224Z" fill="#E6E6E6"/>
<path d="M83.9339 0.0251594L0.997073 16.4104C-0.285161 16.6638 -0.358442 18.4712 0.899394 18.8268L18.4127 23.7803C18.6493 23.8459 18.8997 23.8428 19.1332 23.7665L57.5044 11.4295C58.8828 10.9868 59.7773 12.8598 58.5668 13.6536L33.1784 30.3106C32.5174 30.7426 32.4228 31.6752 32.983 32.2324L48.4966 47.6392C49.0294 48.1673 49.904 48.1078 50.3604 47.511L85.1627 2.00044C85.8588 1.09063 85.0574 -0.196154 83.9339 0.0251594Z" fill="#E6E6E6"/>
<path d="M51.7601 15.0154L21.1099 25.7313C20.5436 25.9282 20.1986 26.5037 20.2917 27.096L22.4746 41.1244C22.67 42.3868 24.4117 42.5684 24.8651 41.3747L28.8934 30.7641L29.0965 30.2299L29.6857 29.862L52.1311 15.7878C52.5676 15.5146 52.2456 14.846 51.7601 15.0154Z" fill="#E6E6E6"/>
</svg>
