<svg width="37" height="37" viewBox="0 0 37 37" fill="none" xmlns="http://www.w3.org/2000/svg">
<circle opacity="0.0902314" cx="18.4999" cy="18.4998" r="18.5" fill="#515ED2"/>
<path d="M27.9918 13.7158C28.5218 11.4842 27.1539 9.3277 24.8736 9.09113C23.7189 8.98721 22.5692 9.34049 21.6725 10.0754C21.2606 8.991 20.441 8.11051 19.3883 7.62213C17.2958 6.68659 15.0377 7.87015 14.3805 10.0679C13.5426 12.863 15.8119 15.2975 19.0316 19.9299C24.1332 17.5292 27.3194 16.5524 27.9918 13.7158ZM17.9608 9.17749C17.0384 9.19214 16.2521 9.85007 16.0748 10.7554C16.0392 10.9304 15.8854 11.056 15.7064 11.056C15.6815 11.0551 15.6564 11.0526 15.6315 11.0483C15.534 11.0285 15.4481 10.9705 15.3932 10.8876C15.338 10.8044 15.3187 10.7027 15.3385 10.605C15.5785 9.34479 16.6778 8.43134 17.9608 8.42615C18.1683 8.42615 18.3365 8.59421 18.3365 8.80182C18.3365 9.00928 18.1683 9.17749 17.9608 9.17749Z" fill="#515ACE"/>
<path d="M20.2148 26.4597C19.1184 26.4597 18.4094 26.2055 18.1066 25.7045C17.7434 25.1034 17.9187 24.0494 18.5949 22.7315L19.2639 22.9112C19.4311 22.9559 19.6098 22.9049 19.7282 22.7784C19.8464 22.6521 19.8859 22.4709 19.8308 22.3067L19.0266 19.9285L17.1403 21.5855C17.0104 21.6999 16.9538 21.8766 16.9929 22.0453C17.0319 22.2142 17.1608 22.3475 17.3283 22.3927L17.851 22.5324C17.3049 23.6392 16.8483 25.0804 17.4611 26.0933C17.9118 26.8352 18.8376 27.2109 20.2148 27.2109C25.56 27.2109 27.7287 27.2826 27.7287 29.0895C27.7287 29.2969 27.8972 29.4651 28.1044 29.4651C28.312 29.4651 28.4802 29.2969 28.4802 29.0895C28.4802 26.4597 25.5446 26.4597 20.2148 26.4597Z" fill="#515ACE"/>
<path d="M14.5802 17.8185C14.5802 15.1211 12.7311 12.9346 10.4471 12.9346C8.16296 12.9346 6.31433 15.1211 6.31433 17.8185C6.20422 20.4324 7.92102 22.7733 10.4471 23.4538C12.973 22.7733 14.6901 20.4324 14.5802 17.8185ZM10.4471 14.8128C9.55286 14.8128 8.74109 15.5267 8.38098 16.6275C8.32971 16.7815 8.18591 16.8859 8.02405 16.8868C7.9845 16.8859 7.94495 16.8796 7.90759 16.8679C7.71008 16.8036 7.60291 16.5917 7.66687 16.3946C8.12927 14.9783 9.22205 14.0615 10.4471 14.0615C10.6547 14.0615 10.8229 14.2297 10.8229 14.4371C10.8229 14.6447 10.6547 14.8128 10.4471 14.8128Z" fill="#515ACE"/>
<path d="M12.5134 27.2486C11.9397 27.1646 11.476 27.0745 11.1687 26.7411C10.9231 26.4535 10.7907 26.0862 10.7968 25.708H11.2138C11.3503 25.7037 11.4738 25.6257 11.5359 25.5045C11.5984 25.3831 11.5901 25.2374 11.5144 25.1238L10.447 23.4539L9.38059 25.1238C9.3049 25.2372 9.2966 25.3826 9.35886 25.504C9.42111 25.6252 9.54392 25.7033 9.6799 25.708H10.0461V25.7145C10.042 26.2799 10.2463 26.8268 10.6198 27.2515C11.1318 27.8065 11.8691 27.9138 12.4079 27.9919C13.6828 28.1775 14.2041 28.4957 14.2041 29.0894C14.2041 29.2968 14.3723 29.465 14.5796 29.465C14.7868 29.465 14.9553 29.2968 14.9553 29.0894C14.9553 27.6035 13.2453 27.3547 12.5134 27.2486Z" fill="#515ACE"/>
</svg>
