<svg width="48" height="48" viewBox="0 0 48 48" fill="none" xmlns="http://www.w3.org/2000/svg">
<path d="M36.5886 17.9153C35.6532 18.3236 34.6565 18.5942 33.6174 18.7256C34.6864 18.0905 35.5023 17.0925 35.8859 15.8895C34.8892 16.4808 33.7888 16.8985 32.616 17.1316C31.6697 16.1288 30.3209 15.5078 28.8494 15.5078C25.9946 15.5078 23.6963 17.8136 23.6963 20.6403C23.6963 21.0471 23.7309 21.4381 23.8158 21.8104C19.5289 21.6024 15.7355 19.5578 13.1873 16.4433C12.7424 17.2114 12.4814 18.0905 12.4814 19.0369C12.4814 20.814 13.4011 22.3892 14.7719 23.3012C13.9434 23.2856 13.1307 23.0462 12.4421 22.6692C12.4421 22.6849 12.4421 22.7052 12.4421 22.7256C12.4421 25.2191 14.2295 27.2902 16.5734 27.7673C16.1537 27.8815 15.6962 27.9363 15.2215 27.9363C14.8914 27.9363 14.5581 27.9175 14.2453 27.8487C14.9134 29.8807 16.8092 31.3746 19.0635 31.4231C17.3091 32.7888 15.0816 33.6116 12.6701 33.6116C12.2472 33.6116 11.8416 33.5928 11.436 33.5412C13.7202 35.007 16.4272 35.8439 19.3465 35.8439C28.8353 35.8439 34.023 28.0223 34.023 21.2426C34.023 21.0158 34.0151 20.7968 34.0041 20.5793C35.0275 19.8566 35.8874 18.954 36.5886 17.9153Z" fill="#03A9F4"/>
<circle cx="24" cy="24" r="23.5" stroke="#1CA9F4"/>
</svg>
