<svg width="13" height="18" viewBox="0 0 13 18" fill="none" xmlns="http://www.w3.org/2000/svg">
<path d="M7.46973 15.0791C7.46973 15.1916 7.46973 15.2867 7.46973 15.3817C7.46973 15.8739 7.47095 16.3661 7.46924 16.8583C7.46899 17.0713 7.40405 17.1335 7.19092 17.1337C6.81641 17.1341 6.44189 17.1347 6.06763 17.1335C5.88843 17.1328 5.81567 17.0608 5.81543 16.8818C5.81396 16.3467 5.81445 15.8117 5.81445 15.2767C5.81445 15.2186 5.81445 15.1605 5.81445 15.0791C5.74731 15.0791 5.69092 15.0791 5.63452 15.0791C5.09912 15.079 4.56421 15.0791 4.0293 15.0782C3.84473 15.0779 3.76831 15.0037 3.76709 14.8166C3.7644 14.4421 3.7644 14.0675 3.76709 13.6931C3.76831 13.4946 3.83789 13.4258 4.04199 13.4249C4.56079 13.4225 5.08008 13.4241 5.59888 13.4241C5.6626 13.4241 5.72656 13.4241 5.80298 13.4241V11.7489C5.5437 11.6884 5.2771 11.6383 5.01733 11.5638C3.48462 11.1232 2.35376 10.1755 1.58423 8.79283C0.914061 7.58775 0.726073 6.28977 0.998534 4.94859C1.44287 2.7606 2.76001 1.26573 4.85889 0.572367C7.46582 -0.2889 10.1006 0.704875 11.5935 3.1052C12.3552 4.33012 12.5718 5.6746 12.3018 7.07798C11.9026 9.15287 10.7021 10.6012 8.74463 11.4006C8.38281 11.5481 7.98559 11.607 7.60596 11.7131C7.55591 11.7272 7.47705 11.7776 7.47656 11.8122C7.4685 12.3408 7.47095 12.8694 7.47095 13.4241C7.54565 13.4241 7.60767 13.4241 7.66919 13.4241C8.18848 13.4241 8.70727 13.4234 9.22656 13.4244C9.46411 13.4248 9.53296 13.492 9.53418 13.729C9.53589 14.0821 9.53589 14.4353 9.53369 14.7884C9.53247 15.0127 9.46069 15.0787 9.2312 15.0787C8.70166 15.0787 8.17187 15.0791 7.64209 15.0791C7.59033 15.0791 7.53808 15.0791 7.46973 15.0791ZM6.64184 10.1494C8.91308 10.154 10.7349 8.33671 10.7522 6.04923C10.7693 3.83171 8.93384 1.99345 6.74927 1.93595C4.48486 1.87632 2.53711 3.77159 2.54004 6.0095C2.54346 8.31529 4.34912 10.1448 6.64184 10.1494Z" fill="#6671D5"/>
</svg>
