<svg width="48" height="48" viewBox="0 0 48 48" fill="none" xmlns="http://www.w3.org/2000/svg">
<path d="M16.5105 26.8602L15.5757 30.35L12.159 30.4223C11.1378 28.5283 10.5587 26.3615 10.5587 24.0587C10.5587 21.832 11.1002 19.7322 12.0601 17.8833L15.1027 18.441L16.4352 21.4646C16.1563 22.2777 16.0043 23.1505 16.0043 24.0587C16.0044 25.0444 16.183 25.9889 16.5105 26.8602Z" fill="#FBBB00"/>
<path d="M37.1801 21.5502C37.3344 22.3625 37.4148 23.2014 37.4148 24.0587C37.4148 25.0201 37.3137 25.9578 37.1211 26.8624C36.4675 29.9405 34.7594 32.6283 32.3933 34.5304L32.3926 34.5296L28.5612 34.3342L28.0189 30.9491C29.5889 30.0283 30.8159 28.5874 31.4622 26.8624H24.2819V21.5502H31.567H37.1801Z" fill="#518EF8"/>
<path d="M32.3925 34.5296L32.3932 34.5303C30.0921 36.3799 27.1688 37.4867 23.9867 37.4867C18.873 37.4867 14.427 34.6284 12.1589 30.4222L16.5105 26.8601C17.6445 29.8865 20.564 32.041 23.9867 32.041C25.4579 32.041 26.8361 31.6432 28.0188 30.949L32.3925 34.5296Z" fill="#28B446"/>
<path d="M32.5578 13.722L28.2077 17.2834C26.9837 16.5183 25.5368 16.0763 23.9867 16.0763C20.4865 16.0763 17.5124 18.3296 16.4352 21.4645L12.0608 17.8832C14.2956 13.5745 18.797 10.6306 23.9867 10.6306C27.2448 10.6306 30.2322 11.7912 32.5578 13.722Z" fill="#F14336"/>
<circle cx="24" cy="24" r="23.5" stroke="#F14336"/>
</svg>
