<svg width="38" height="38" viewBox="0 0 38 38" fill="none" xmlns="http://www.w3.org/2000/svg">
<circle opacity="0.0902314" cx="19.0001" cy="18.9998" r="19" fill="#515ED2"/>
<path d="M27.7922 24.277C29.0015 22.5923 30.046 21.1374 30.0513 18.3267C30.0561 15.9521 28.5518 13.4473 26.3936 12.2346C25.6665 11.827 24.3596 11.2966 22.9678 11.7097L22.9684 11.7124C23.3659 12.5337 23.7992 13.7003 23.7213 14.7672C23.6975 15.0962 23.6406 15.4245 23.5503 15.748C24.9943 17.961 24.4708 20.1328 23.9186 22.424C23.7294 23.2095 23.5334 24.022 23.3978 24.8922L23.3632 25.1113C23.1868 26.2365 22.9874 27.5123 22.927 28.9305C22.8565 30.5847 23.2553 31.7635 24.112 32.4336C24.468 32.7123 24.8953 32.8996 25.353 33.0194C25.7254 33.117 26.0217 32.7099 25.8243 32.3794C25.8225 32.3765 25.8209 32.3734 25.8191 32.3705C25.0838 31.1321 24.953 29.7119 25.4509 28.3723C26.0918 26.6462 26.9953 25.3873 27.7922 24.277Z" fill="#515ACE"/>
<path d="M21.477 15.5363C21.5977 15.2351 21.6695 14.9272 21.692 14.6199C21.7489 13.842 21.2125 12.6069 20.6895 11.7882C20.6114 11.6656 20.5233 11.5244 20.4255 11.3656C20.2803 11.1298 19.9253 11.1753 19.8435 11.4398C19.843 11.4418 19.8423 11.4438 19.8418 11.4457C19.7799 11.6432 19.725 11.8038 19.6769 11.9287C19.409 12.6199 19.2707 13.2961 19.2774 13.8834C19.2849 14.5155 19.4503 15.0473 19.7834 15.5092C20.0872 15.9297 20.0262 16.5116 19.641 16.8595C19.6098 16.8874 19.5297 16.9796 19.4646 17.0535C19.1133 17.4557 18.5252 18.1286 17.4292 18.6868C16.1701 19.3276 14.5439 19.6499 12.5961 19.6437C11.9104 20.6645 11.0556 21.8806 10.5313 22.47L10.4615 22.548C9.79682 23.2935 9.04258 24.1385 9.05346 24.5156C9.0711 25.1125 9.35124 26.3055 10.2899 26.9872C11.1736 27.6288 12.4718 27.7041 14.1492 27.2124C14.6613 27.0618 15.1313 26.8827 15.5864 26.7104C16.2715 26.45 16.9178 26.2045 17.5703 26.1143C20.4983 25.7107 21.0361 24.8954 21.3257 24.4573C21.359 24.4064 21.3949 24.3529 21.4329 24.2986L21.4335 24.297C21.5776 23.4567 21.7617 22.6899 21.9409 21.947C22.5439 19.4442 22.8037 18.0667 21.6174 16.5393C21.3956 16.2537 21.342 15.8719 21.477 15.5363ZM10.7633 25.6536C10.1929 25.6536 9.77036 25.1877 9.74594 24.6363C9.72147 24.0869 10.2309 23.6189 10.7633 23.6189C11.3337 23.6189 11.7563 24.0855 11.7806 24.6363C11.8051 25.1856 11.2957 25.6536 10.7633 25.6536ZM19.938 20.8563C19.3194 21.475 18.4947 21.8141 17.6314 21.814C17.5113 21.814 17.3912 21.8072 17.2698 21.7937C16.7117 21.7326 16.3081 21.23 16.3691 20.6718C16.4308 20.1129 16.9327 19.71 17.4916 19.7711C17.8659 19.8125 18.2336 19.6836 18.4995 19.4171C18.8969 19.0203 19.5406 19.0203 19.938 19.4171C20.3355 19.8145 20.3355 20.4589 19.938 20.8563Z" fill="#515ACE"/>
<path d="M14.7081 14.7538H14.6932C14.3235 14.7538 13.9824 14.553 13.8033 14.2295L13.69 14.0254C12.6998 15.1092 11.5271 16.3762 9.4198 16.5918C10.1896 17.1358 11.266 17.6098 12.6503 17.6092C15.8462 17.6092 17.0624 16.6521 17.7019 15.9712C17.417 15.3702 17.2651 14.7069 17.2461 13.9927C16.3766 14.5455 15.37 14.7442 14.7081 14.7538Z" fill="#515ACE"/>
<path d="M15.25 12.6415C15.7648 12.5269 17.0612 11.6727 17.3643 10.9809C17.0383 10.5578 13.0691 5.87807 9.99399 2.25829C9.63783 1.83911 8.98656 2.3091 9.27171 2.77952L15.25 12.6415Z" fill="#515ACE"/>
</svg>
