<svg width="105" height="48" viewBox="0 0 105 48" fill="none" xmlns="http://www.w3.org/2000/svg">
<path d="M65.4247 45.7163C64.6729 44.5306 64.2278 42.8673 64.2278 40.9411C64.2278 40.1429 64.3077 39.3939 64.4508 38.7017L57.9956 44.7211C60.5352 45.4914 63.347 45.6949 65.4247 45.7163Z" fill="#E6E6E6"/>
<path d="M58.3553 1.57202H48.0076C47.5866 1.57202 47.3274 2.03106 47.5439 2.39159L51.3574 8.73161L55.9394 8.46214L65.8383 7.87952L59.6014 2.06358C59.2632 1.74765 58.8181 1.57202 58.3553 1.57202Z" fill="#E6E6E6"/>
<path d="M10.1013 19.7604C12.1084 18.2421 14.5448 17.4727 17.3426 17.4727C19.6415 17.4727 21.6848 17.9986 22.9941 18.44C23.861 18.7327 24.5579 19.3831 24.9064 20.226C25.2586 21.0752 25.2251 22.0379 24.8144 22.8658C23.7848 24.9436 21.5761 27.0027 18.2514 28.9847C17.7422 29.2886 17.2246 29.5543 16.7033 29.7996C17.1995 30.0041 17.7078 30.1806 18.2374 30.3033C24.8033 31.8244 33.0575 32.774 41.7298 33.3511L46.0376 26.1887C46.4131 25.5652 46.9985 25.0904 47.6851 24.8516C52.1574 23.3026 56.7589 22.5174 61.3631 22.5174C66.8604 22.5174 71.1078 23.6603 73.1502 24.3424C74.1956 24.6917 74.9594 25.542 75.1926 26.618C75.4268 27.694 75.0848 28.7859 74.2783 29.5385L69.3284 34.1539C80.4176 34.1483 89.8045 33.8268 94.2991 33.6717C109.094 33.1615 106.062 23.6194 102.42 22.1494C98.7761 20.6794 94.7925 19.7901 92.2799 15.2584C89.9197 11.0035 85.5478 9.01221 81.1628 9.01221C80.8776 9.01221 80.5923 9.02057 80.307 9.03729C75.6442 9.31234 64.4509 9.97115 56.0564 10.4655C47.6619 10.9598 21.5464 12.4968 21.5464 12.4968L15.8401 3.58932C14.7185 1.83868 12.7858 0.790527 10.7229 0.790527C10.604 0.790527 10.485 0.793312 10.3652 0.800751L1.83126 1.30346C0.435589 1.38522 -0.412785 2.87568 0.236736 4.11339C2.22432 7.90273 5.99971 15.0577 9.14882 20.7928L9.51121 20.3374C9.68498 20.1191 9.88383 19.9249 10.1013 19.7604Z" fill="#E6E6E6"/>
<path d="M17.2237 27.2612C20.9712 25.0273 22.4403 23.1373 23.0164 21.9758C23.3333 21.3365 23.0294 20.5699 22.3529 20.3422C21.2602 19.9733 19.4092 19.479 17.3426 19.479C15.3727 19.479 13.2067 19.9278 11.312 21.3607C11.2265 21.4257 11.1476 21.5038 11.0806 21.5883L7.00139 26.7092C6.24594 27.6579 6.80905 29.062 8.01051 29.2302C8.5569 29.3064 9.17761 29.3575 9.85872 29.3575C11.8983 29.3575 14.4797 28.8966 17.2237 27.2612Z" fill="#E6E6E6"/>
<path d="M72.9095 28.0705C73.5135 27.5074 73.298 26.5076 72.5146 26.2464C70.423 25.5477 66.4822 24.5237 61.3631 24.5237C57.5775 24.5237 53.148 25.0831 48.3421 26.7482C48.0986 26.8328 47.8896 27.0028 47.7567 27.223L37.0419 45.0379C36.3116 46.2524 37.1869 47.7996 38.6039 47.7996H50.3445C51.2487 47.7996 52.1193 47.4557 52.7809 46.8397L72.9095 28.0705Z" fill="#E6E6E6"/>
<path d="M68.4966 36.2651C67.2477 36.2651 66.2349 38.3586 66.2349 40.9409C66.2349 43.5223 67.2477 45.6158 68.4966 45.6158C69.7463 45.6158 70.7592 43.5223 70.7592 40.9409C70.7592 38.3586 69.7463 36.2651 68.4966 36.2651Z" fill="#E6E6E6"/>
<path d="M92.2799 15.2584C92.0495 14.844 91.7856 14.4686 91.5189 14.0959C91.412 14.1824 89.22 15.88 81.7064 15.6505C80.557 15.6152 79.8424 16.931 80.5365 17.8481C81.7491 19.4491 83.3752 20.8643 85.308 21.2146C88.0157 21.7062 94.8901 21.1803 96.7252 19.7344C95.0378 18.7708 93.4879 17.4383 92.2799 15.2584Z" fill="#E6E6E6"/>
<path d="M30.9153 18.6489C30.9153 18.1498 31.3199 17.7451 31.8191 17.7451H33.2973C33.7964 17.7451 34.2011 18.1498 34.2011 18.6489V21.3038C34.2011 21.803 33.7964 22.2077 33.2972 22.2077H31.8192C31.32 22.2077 30.9153 21.803 30.9153 21.3038V18.6489Z" fill="#E6E6E6"/>
<path d="M40.0608 18.6489C40.0608 18.1498 40.4654 17.7451 40.9646 17.7451H42.4426C42.9418 17.7451 43.3465 18.1498 43.3465 18.649V21.3038C43.3465 21.803 42.9418 22.2077 42.4426 22.2077H40.9647C40.4655 22.2077 40.0608 21.803 40.0608 21.3038V18.6489Z" fill="#E6E6E6"/>
<path d="M49.2063 18.649C49.2063 18.1498 49.611 17.7451 50.1102 17.7451H51.5882C52.0874 17.7451 52.492 18.1498 52.492 18.6489V21.3038C52.492 21.803 52.0873 22.2077 51.5881 22.2077H50.1101C49.6109 22.2077 49.2063 21.803 49.2063 21.3039V18.649Z" fill="#E6E6E6"/>
<path d="M58.3521 18.649C58.3521 18.1498 58.7567 17.7451 59.256 17.7451H60.7339C61.2331 17.7451 61.6377 18.1498 61.6377 18.6489V21.3038C61.6377 21.803 61.2331 22.2077 60.7338 22.2077H59.256C58.7567 22.2077 58.3521 21.803 58.3521 21.3038V18.649Z" fill="#E6E6E6"/>
<path d="M67.4976 18.6489C67.4976 18.1498 67.9022 17.7451 68.4014 17.7451H69.8795C70.3786 17.7451 70.7833 18.1498 70.7833 18.6489V21.3038C70.7833 21.803 70.3786 22.2077 69.8794 22.2077H68.4015C67.9022 22.2077 67.4976 21.803 67.4976 21.3038V18.6489Z" fill="#E6E6E6"/>
</svg>
