<svg width="38" height="38" viewBox="0 0 38 38" fill="none" xmlns="http://www.w3.org/2000/svg">
<circle opacity="0.0902314" cx="19.0001" cy="19" r="19" fill="#515ED2"/>
<path d="M30.0626 10.0285C30.018 9.91498 29.9145 9.83508 29.7934 9.82013C29.6725 9.80554 29.5528 9.85809 29.482 9.95752C29.0612 10.5471 28.5093 10.7438 27.8698 10.9714C27.3542 11.1552 26.8209 11.3451 26.2446 11.7589C25.4295 12.3439 25.0567 13.1416 25.2425 13.8975L25.2228 13.923C24.8825 13.4291 24.5121 12.9725 24.1214 12.5647C22.2932 10.6572 19.7383 9.51019 17.1122 9.41833C16.9965 9.41418 16.8789 9.41211 16.7626 9.41211C13.8301 9.41211 11.0232 10.723 9.06175 13.0089C7.11031 15.2827 6.24568 18.2427 6.68898 21.1297C6.72609 21.3711 6.77242 21.6151 6.82686 21.8548C7.54811 25.0291 9.39012 27.4439 11.8805 28.4794C12.4945 28.7349 13.1137 28.8645 13.7209 28.8645C15.2293 28.8645 16.547 28.0576 17.3357 26.6508C17.6357 26.1157 17.8291 25.5621 17.9107 25.0056C17.9586 24.6768 17.9259 24.3487 17.8942 24.0306C17.8614 23.703 17.8302 23.3939 17.8799 23.0823C17.9933 22.368 18.4922 21.9418 19.2143 21.9418C19.4197 21.9418 19.6297 21.9753 19.8391 22.0423C19.5937 22.4924 19.3709 22.9222 19.1761 23.3204C18.7634 24.1645 18.4786 24.8635 18.3299 25.3981C18.2381 25.7277 17.9939 26.6033 18.5889 27.0163C18.7778 27.1475 19.0173 27.1938 19.2669 27.1475C19.4915 27.1057 20.1751 26.9786 22.1179 24.7671C22.6392 24.1735 23.2012 23.4868 23.7883 22.7252C25.296 22.2173 26.4692 20.9539 26.7794 19.5018C26.8573 19.139 26.8897 18.7504 26.8759 18.347C27.4404 17.4744 27.9354 16.6605 28.4336 15.7856C28.4432 15.7688 28.4527 15.7506 28.4618 15.7322C29.185 15.5344 29.808 14.9716 30.1735 14.1845C30.7073 13.0359 30.668 11.56 30.0626 10.0285ZM21.9125 15.4669C21.6507 15.8823 21.2012 16.1303 20.7097 16.1303C20.4428 16.1303 20.1816 16.0547 19.9548 15.9119C19.6338 15.7097 19.4108 15.3948 19.3267 15.025C19.2428 14.6554 19.3075 14.275 19.5097 13.954C19.7714 13.5385 20.2209 13.2906 20.7125 13.2906C20.9796 13.2906 21.2405 13.3662 21.4675 13.5092C21.7884 13.7112 22.0114 14.026 22.0954 14.3958C22.1794 14.7657 22.1144 15.1461 21.9125 15.4669ZM23.755 18.0392C24.4728 16.9816 25.232 15.9306 25.9527 14.9955C26.0698 15.1009 26.2004 15.2041 26.3419 15.3022C26.5766 15.4651 26.8217 15.5908 27.0724 15.6772C26.4638 16.718 25.8092 17.7492 25.0169 18.9166C23.715 20.835 22.3609 22.617 21.2047 23.9344C20.5591 24.6701 19.9938 25.2383 19.5584 25.5902C19.7264 25.0524 20.0478 24.3143 20.4948 23.4399C21.2941 21.8765 22.4523 19.9584 23.755 18.0392ZM11.1536 18.03C10.8866 18.03 10.6255 17.9546 10.3984 17.8115C10.0776 17.6094 9.85454 17.2946 9.77056 16.9247C9.68657 16.5551 9.7516 16.1747 9.95372 15.8536C10.2152 15.4385 10.6647 15.1903 11.1562 15.1903C11.4234 15.1903 11.6846 15.2659 11.9115 15.4089C12.5738 15.8263 12.7733 16.7044 12.3563 17.3666C12.0948 17.782 11.6451 18.03 11.1536 18.03ZM9.66545 21.1562C9.9269 20.7408 10.3764 20.4927 10.8682 20.4927C11.1351 20.4927 11.396 20.5683 11.6231 20.7114C11.9439 20.9135 12.1669 21.2284 12.2512 21.5982C12.3352 21.9678 12.2702 22.3482 12.0678 22.669C11.8065 23.0844 11.3568 23.3324 10.8653 23.3324C10.5984 23.3324 10.3371 23.257 10.1101 23.114C9.78926 22.9118 9.56624 22.5969 9.48226 22.2271C9.39852 21.8575 9.46358 21.4771 9.66545 21.1562ZM14.2121 12.7245C14.4736 12.3093 14.9231 12.0612 15.4147 12.0612C15.6815 12.0612 15.9427 12.1365 16.1695 12.2797C16.832 12.6967 17.0315 13.5751 16.6147 14.2373C16.353 14.6527 15.9034 14.9009 15.412 14.9009C15.1448 14.9009 14.8838 14.8253 14.6568 14.6823C14.336 14.4804 14.113 14.1655 14.029 13.7957C13.945 13.4258 14.01 13.0454 14.2121 12.7245Z" fill="#515ACE"/>
</svg>
