<svg width="48" height="48" viewBox="0 0 48 48" fill="none" xmlns="http://www.w3.org/2000/svg">
<path d="M29.9048 11.3791L26.5989 11.3738C22.8847 11.3738 20.4844 13.8218 20.4844 17.6109V20.4866H17.1604C16.8732 20.4866 16.6406 20.7181 16.6406 21.0036V25.1702C16.6406 25.4557 16.8734 25.6869 17.1604 25.6869H20.4844V36.2005C20.4844 36.4861 20.717 36.7173 21.0043 36.7173H25.3412C25.6284 36.7173 25.861 36.4858 25.861 36.2005V25.6869H29.7476C30.0348 25.6869 30.2674 25.4557 30.2674 25.1702L30.269 21.0036C30.269 20.8665 30.2141 20.7352 30.1167 20.6382C30.0194 20.5411 29.8868 20.4866 29.7489 20.4866H25.861V18.0488C25.861 16.8771 26.1419 16.2823 27.6772 16.2823L29.9043 16.2815C30.1913 16.2815 30.4239 16.05 30.4239 15.7647V11.8958C30.4239 11.6108 30.1915 11.3796 29.9048 11.3791Z" fill="#0D75EA"/>
<circle cx="24" cy="24" r="23.5" stroke="#1375EA"/>
</svg>
